<?xml version="1.0" encoding="UTF-8"?>
<svg id="a" data-name="图层 1" xmlns="http://www.w3.org/2000/svg" width="2000" height="500" xmlns:xlink="http://www.w3.org/1999/xlink" viewBox="0 0 2000 500">
  <defs>
    <clipPath id="b">
      <rect width="2000" height="500" style="fill: none; stroke-width: 0px;"/>
    </clipPath>
  </defs>
  <g style="clip-path: url(#b);">
    <g>
      <g>
        <path d="M73.14,479c-14.04,0-30.11-5.94-32.7-15.88C15.82,368.77,2.59,287.61,1.13,221.89c-1.51-68.04,10.18-94.99,15.27-103.42,2.81-4.66,5.78-7.46,8.58-8.11.59-.14,1.21-.21,1.84-.21,14.01,0,34.9,33.97,55.09,66.82,23.45,38.14,47.7,77.58,67.38,77.58h0c1.07,0,2.14-.12,3.16-.35,22.12-5.01,21.83-60.52,21.52-119.28-.28-54.83-.58-111.54,18.77-120.6,4.99-2.34,9.84-3.53,14.42-3.53,22.25,0,38.26,27.81,56.8,60.01,7.05,12.25,14.35,24.92,22.62,37.28.6,1.65,3.84,3.75,3.88,3.78,20.81,12.41,30.44,55.64,24.52,110.13-3.71,34.16-12.99,67.7-26.12,94.46-14.81,30.16-33.55,49.73-54.2,56.61-.87.29-1.69.58-2.49.87-3.18,1.13-5.93,2.1-9.38,2.1h0c-.25,0-.51,0-.77-.02l-.49-.02-.32.37c-3.09,3.62-8.68,7.33-15.33,10.16-3.78,1.61-7.83,2.43-12.02,2.43-17.57,0-36.24-14.18-52.72-26.68-13.86-10.52-26.96-20.46-37.46-20.46-2.72,0-5.23.67-7.45,1.98-14.34,8.48-10.24,39.52-6.29,69.53,3.67,27.85,7.47,56.65-4.48,63.31-2.76,1.54-7.15,2.38-12.35,2.38Z" style="fill: #00afcc; stroke-width: 0px;"/>
        <path d="M207.18,11.79c21.67,0,37.55,27.58,55.94,59.51,7.05,12.24,14.34,24.89,22.6,37.26.88,2.12,4.21,4.13,4.25,4.16,20.48,12.21,29.92,55.06,24.04,109.16-3.7,34.04-12.94,67.47-26.03,94.12-14.69,29.91-33.23,49.31-53.62,56.1-.87.29-1.71.59-2.51.87-3.23,1.14-5.77,2.04-9.05,2.04-.24,0-.48,0-.73-.01l-.97-.04-.63.74c-3,3.51-8.45,7.11-14.96,9.89-3.66,1.56-7.57,2.35-11.63,2.35-17.23,0-35.76-14.07-52.11-26.48-14.61-11.09-27.22-20.67-38.07-20.67-2.9,0-5.58.71-7.96,2.12-14.91,8.82-10.77,40.18-6.77,70.52,3.63,27.52,7.39,55.98-3.98,62.31-2.62,1.46-6.83,2.26-11.86,2.26-13.66,0-29.26-5.66-31.73-15.14C16.8,368.59,3.59,287.51,2.13,221.86c-1.51-67.77,10.08-94.52,15.13-102.88,2.63-4.36,5.46-7.07,7.95-7.65.52-.12,1.06-.18,1.62-.18,13.45,0,34.19,33.73,54.24,66.34,11.55,18.78,23.49,38.2,34.91,52.85,13.39,17.19,23.99,25.2,33.33,25.2,1.15,0,2.28-.13,3.38-.37,22.9-5.19,22.61-61.09,22.3-120.26-.14-27.45-.29-55.83,2.08-77.95,2.59-24.22,7.86-37.88,16.11-41.74,4.93-2.31,9.51-3.43,13.99-3.43M207.18,9.79c-4.64,0-9.56,1.14-14.84,3.62-40.3,18.89,2.11,230.25-40.09,239.82-.96.22-1.95.33-2.94.33-36.59,0-91.96-144.39-122.48-144.39-.7,0-1.39.08-2.07.23-19.79,4.59-50.41,104.4,14.71,353.98,2.88,11.02,20.19,16.63,33.67,16.63,5.2,0,9.82-.83,12.84-2.51,25.51-14.21-16.31-116.82,10.79-132.85,2.15-1.27,4.47-1.84,6.94-1.84,22.45,0,57.45,47.15,90.18,47.15,4.19,0,8.33-.77,12.41-2.51,5.63-2.4,11.97-6.06,15.7-10.43.28.01.55.02.81.02,4.49,0,7.77-1.55,12.19-3.02,80.19-26.7,108.62-231.63,56-263-2.06-1.23-3.62-3.15-3.5-3.38-30.66-45.8-49.05-97.83-80.32-97.83h0Z" style="fill: #231815; stroke-width: 0px;"/>
      </g>
      <g>
        <path d="M489.33,477.94c-20.31,0-43.12-9.52-59.51-24.84-28.09-26.26-35.65-61.6-42.32-92.78-6.15-28.75-11.47-53.59-30.92-65.96-3.13-1.99-6.52-3-10.06-3-4.49,0-9.32,1.56-14.76,4.78-10.96,6.48-15.19,25.06-21.03,50.78-1.7,7.48-3.62,15.95-5.87,24.77-1.99,7.81-3.89,17.27-5.74,26.41-3.15,15.63-6.4,31.8-10.02,39.16-8.17,16.6-18.62,24.67-31.95,24.67-1.73,0-3.54-.14-5.37-.41-5.28-.79-10.47-5.74-14.99-14.31-12.76-24.16-18.22-71.45-14.26-123.43,3.48-45.61,15.64-116.56,53.86-195.6,14.42-29.83,63.8-127.18,93.52-127.18.52,0,1.05.03,1.55.09,7.13.88,12.64,4.76,16.36,11.53,10.45,19.02,4.89,56.13-6.26,79.6-40.02,84.29-46.85,111.51-30.44,121.38,2.65,1.6,6.2,2.4,10.54,2.4,21.19,0,59.05-19.79,71.5-30.5,17.3-14.89,30.3-28.75,40.75-39.88,18.48-19.69,30.68-32.69,48.71-32.69.38,0,.77,0,1.16.02,14.49.43,28.9,8.6,33.52,19.02,3.02,6.8,4.53,18.97-17.13,45.9-23.99,29.84-40.57,46.97-53.9,60.73-14.2,14.67-23.58,24.36-32.81,40.11-14.87,25.38-5.84,38.88,37.52,103.79l.73,1.09c12.52,18.73,40.74,70.95,21.32,87.41-5.29,4.48-13.71,6.95-23.71,6.95Z" style="fill: #fcd475; stroke-width: 0px;"/>
        <path d="M369.9,2c.48,0,.97.03,1.43.09,6.8.84,12.05,4.55,15.61,11.02,4.69,8.53,6.38,21.9,4.78,37.64-1.46,14.37-5.5,29.33-11.06,41.05-21.07,44.37-32.39,72.16-36.72,90.09-4.22,17.48-2.22,27.23,6.67,32.57,2.81,1.69,6.53,2.55,11.06,2.55,21.41,0,59.61-19.95,72.15-30.74,17.34-14.93,30.36-28.8,40.83-39.95,18.95-20.19,30.39-32.38,47.98-32.38.37,0,.75,0,1.13.02,14.13.42,28.16,8.34,32.64,18.43,2.91,6.57,4.32,18.36-16.99,44.87-23.96,29.8-40.53,46.91-53.84,60.66-13.74,14.19-23.66,24.44-32.95,40.3-15.18,25.92-6.1,39.51,37.55,104.85l.73,1.09c7.22,10.81,17.01,28.37,22.84,45.26,4.83,14.02,8.53,32.48-1.33,40.83-5.11,4.33-13.3,6.71-23.06,6.71-20.07,0-42.61-9.42-58.83-24.57-27.86-26.04-35.39-61.22-42.03-92.26-6.2-28.97-11.56-54-31.36-66.6-3.3-2.1-6.86-3.16-10.6-3.16-4.67,0-9.67,1.61-15.27,4.92-11.34,6.7-15.6,25.46-21.5,51.42-1.7,7.47-3.62,15.94-5.87,24.75-2,7.84-3.9,17.3-5.75,26.46-3.13,15.57-6.37,31.67-9.94,38.92-7.99,16.23-18.14,24.11-31.05,24.11-1.68,0-3.44-.14-5.23-.4-4.95-.74-9.88-5.51-14.26-13.79-12.67-24-18.09-71.08-14.14-122.88,3.47-45.52,15.62-116.34,53.76-195.24,8.72-18.03,26.16-52.53,45.01-80.99,24.98-37.71,39.68-45.62,47.61-45.62M369.9,0c-27.89,0-72.05,81.47-94.42,127.74-81.28,168.11-58.1,329.63-23.86,334.76,1.92.29,3.76.42,5.52.42,16.49,0,26.33-12,32.84-25.23,5.81-11.8,10.41-44.49,15.83-65.77,9.78-38.36,12.68-66.8,26.44-74.94,5.12-3.03,9.84-4.64,14.25-4.64,3.33,0,6.49.92,9.52,2.85,40.33,25.65,19.3,108.34,73.1,158.63,17.97,16.79,41.5,25.11,60.19,25.11,10.06,0,18.71-2.4,24.36-7.19,19.73-16.72-7.55-68.39-21.14-88.72-43.76-65.5-52.85-78.84-38.21-103.82,17.75-30.29,36.95-38.93,86.62-100.72,19.45-24.2,21.37-37.66,17.26-46.93-4.98-11.22-20.07-19.19-34.4-19.61-.4-.01-.8-.02-1.19-.02-28.87,0-42.26,31.62-90.11,72.82-11.77,10.13-49.34,30.26-70.85,30.26-3.98,0-7.41-.69-10.03-2.26-14.71-8.84-10.92-32.17,30.83-120.09,14.8-31.18,20.26-88.72-10.89-92.56-.55-.07-1.11-.1-1.68-.1h0Z" style="fill: #231815; stroke-width: 0px;"/>
      </g>
    </g>
    <g>
      <path d="M734.29,168.18l6.98,2.68c-1.29,3.18-2.83,6.42-4.62,9.72v48.44h-7.9v-35.53c-1.51,2.07-2.97,3.94-4.37,5.61-.28-.67-.67-1.52-1.18-2.56-.5-1.03-1.05-2.07-1.64-3.1-.59-1.03-1.11-1.86-1.56-2.47,2.63-2.85,5.24-6.31,7.82-10.39,2.58-4.08,4.73-8.21,6.47-12.4ZM732.86,150.75l7.31,3.02c-1.91,3.58-4.26,7.18-7.06,10.81-2.8,3.63-5.6,6.73-8.41,9.3-.39-.95-1.01-2.14-1.85-3.56-.84-1.42-1.57-2.56-2.19-3.39,1.57-1.4,3.12-3.02,4.67-4.86,1.54-1.84,2.98-3.76,4.33-5.74,1.34-1.98,2.41-3.84,3.19-5.57ZM744.38,194.75h7.65c-.06,5.25-.31,10-.76,14.25-.45,4.25-1.33,7.99-2.65,11.23-1.32,3.24-3.32,6-6.01,8.3-.45-1.06-1.18-2.25-2.19-3.56-1.01-1.31-1.99-2.33-2.94-3.06,2.07-1.79,3.59-3.95,4.54-6.49.95-2.54,1.57-5.53,1.85-8.97.28-3.44.45-7.33.5-11.69ZM740.68,184.78h28.66v7.04h-28.66v-7.04ZM741.6,158.38h6.3v15.25h4.29v-22.79h6.81v22.79h4.29v-15.17h6.47v21.79h-28.16v-21.87ZM759.34,222.23c-.22-1.06-.66-2.37-1.3-3.94-.64-1.56-1.28-2.79-1.89-3.69.62-.39,1.2-1.05,1.77-1.97.56-.92.84-2.22.84-3.9v-14.08h7.48v13.74l5.55-3.1c.28,1.01.6,2.15.97,3.44.36,1.29.71,2.29,1.05,3.02-3.75,2.35-6.6,4.19-8.53,5.53-1.93,1.34-3.31,2.38-4.12,3.1-.81.73-1.42,1.34-1.81,1.84ZM778.92,150.75l7.65,1.42c-.39,2.4-.83,4.79-1.3,7.17-.48,2.38-1,4.71-1.56,7h15.89v7.63h-3.45c-.67,6.59-1.57,12.7-2.69,18.31-1.12,5.61-2.61,10.74-4.45,15.38,1.46,2.96,3.14,5.64,5.04,8.04,1.9,2.4,4.09,4.41,6.56,6.03-.84.78-1.76,1.84-2.77,3.18s-1.79,2.54-2.35,3.6c-2.13-1.62-4.08-3.49-5.84-5.61-1.77-2.12-3.32-4.47-4.67-7.04-3.14,5.31-7.06,9.78-11.77,13.41-.5-.78-1.36-1.79-2.56-3.02-1.21-1.23-2.2-2.21-2.98-2.93,2.97-2.07,5.55-4.44,7.73-7.12,2.19-2.68,4.09-5.7,5.72-9.05-1.12-3.07-2.09-6.35-2.9-9.85-.81-3.49-1.53-7.14-2.14-10.94-.79,1.4-1.63,2.68-2.52,3.85-.28-.56-.71-1.3-1.3-2.22-.59-.92-1.21-1.83-1.85-2.72-.64-.89-1.25-1.62-1.81-2.18,2.75-3.85,4.95-8.63,6.6-14.33,1.65-5.7,2.9-11.7,3.74-18.02ZM781.44,173.97l-.59,1.76c.45,3.8.99,7.47,1.64,11.02.64,3.55,1.44,6.91,2.4,10.1.95-3.35,1.74-6.94,2.35-10.77.62-3.83,1.09-7.86,1.43-12.11h-7.23Z" style="fill: #231815; stroke-width: 0px;"/>
      <path d="M817,154.44h71.53v74.83h-8.91v-3.6h-54.05v3.6h-8.57v-74.83ZM852.05,163.99h7.82l.42,7.46h9.58c-.9-.84-1.99-1.68-3.28-2.51-1.29-.84-2.52-1.56-3.7-2.18l4.29-4.19h-41.61v54.97h54.05v-54.97h-11.94c1.46.67,2.94,1.5,4.45,2.47,1.51.98,2.69,1.91,3.53,2.81l-3.53,3.6h4.45v6.79h-15.8c.22,2.63.5,5.15.84,7.58.34,2.43.7,4.71,1.09,6.83,1.9-3.63,3.42-7.57,4.54-11.82l6.98,1.42c-2.02,7.37-4.99,13.91-8.91,19.61.62,1.56,1.3,2.82,2.06,3.77.76.95,1.58,1.51,2.48,1.68.45.17.84-.52,1.18-2.05.34-1.54.62-3.56.84-6.08.73.67,1.72,1.45,2.98,2.35,1.26.89,2.28,1.54,3.07,1.93-.62,5.08-1.89,8.51-3.82,10.27-1.93,1.76-4.24,2.05-6.93.88-1.46-.39-2.77-1.13-3.95-2.22-1.18-1.09-2.24-2.44-3.19-4.06-2.8,2.96-5.91,5.53-9.33,7.71-.5-.73-1.29-1.68-2.35-2.85-1.07-1.17-1.96-2.04-2.69-2.6,1.51-.84,2.94-1.76,4.29-2.77-3.75.62-7.43,1.22-11.01,1.8-3.59.59-6.89,1.1-9.92,1.55l-.92-7.04c3.14-.34,6.84-.8,11.1-1.38,4.26-.59,8.66-1.22,13.2-1.89l.17,4.78c1.62-1.4,3.11-2.9,4.45-4.53-.95-3.13-1.75-6.63-2.4-10.52-.64-3.88-1.16-8-1.56-12.36h-24.04v-6.79h23.54l-.5-7.46ZM831.46,181.93h18.83v16.68h-18.83v-16.68ZM837.59,187.63v5.36h6.22v-5.36h-6.22Z" style="fill: #231815; stroke-width: 0px;"/>
      <path d="M968.72,180.92l7.48,5.95c-3.59,2.79-7.43,5.56-11.52,8.3,1.74,5.14,4.34,9.75,7.82,13.83,3.47,4.08,7.7,7.1,12.69,9.05-1.01.84-2.09,1.98-3.24,3.44-1.15,1.45-2.03,2.77-2.65,3.94-5.16-2.4-9.53-5.84-13.11-10.31-3.59-4.47-6.44-9.61-8.57-15.42l-2.94,1.76c.78,3.46,1.12,6.77,1.01,9.93-.11,3.16-.62,5.96-1.51,8.42-.9,2.46-2.07,4.27-3.53,5.45-1.4,1.4-2.83,2.35-4.29,2.85-1.46.5-3.25.78-5.38.84-.9,0-1.95-.01-3.15-.04-1.21-.03-2.45-.07-3.74-.13-.06-1.23-.28-2.64-.67-4.23-.39-1.59-.98-3-1.77-4.23,1.51.17,2.93.28,4.24.34,1.32.06,2.45.08,3.4.08,1.01,0,1.9-.11,2.69-.34.78-.22,1.48-.75,2.1-1.59.84-.78,1.53-2.08,2.06-3.9.53-1.81.74-3.92.63-6.33-3.19,2.29-6.75,4.5-10.67,6.62-3.92,2.12-7.96,4.05-12.1,5.78-4.15,1.73-8.13,3.18-11.94,4.36-.5-1.12-1.19-2.4-2.06-3.85-.87-1.45-1.72-2.68-2.56-3.69,3.31-.73,6.74-1.7,10.3-2.93,3.56-1.23,7.05-2.64,10.47-4.23,3.42-1.59,6.61-3.27,9.58-5.03,2.97-1.76,5.49-3.53,7.56-5.32-.39-1.4-.9-2.74-1.51-4.02-2.8,1.79-5.97,3.56-9.5,5.32-3.53,1.76-7.13,3.39-10.8,4.9-3.67,1.51-7.13,2.77-10.38,3.77-.5-1.01-1.18-2.18-2.02-3.52-.84-1.34-1.65-2.49-2.44-3.44,3.47-.78,7.2-1.86,11.18-3.23,3.98-1.37,7.79-2.89,11.43-4.57,3.64-1.68,6.67-3.35,9.08-5.03-.84-1.23-1.79-2.37-2.86-3.44-3.7,1.96-7.58,3.7-11.64,5.24-4.06,1.54-8.06,2.86-11.98,3.98-.45-.89-1.15-2.08-2.1-3.56-.95-1.48-1.82-2.67-2.61-3.56,4.93-1.01,9.88-2.36,14.84-4.06,4.96-1.7,9.37-3.7,13.24-5.99h-15.97v-7.71h47.74v7.71h-19.5c-1.57,1.34-3.33,2.68-5.3,4.02,1.74,1.62,3.25,3.37,4.54,5.24,1.29,1.87,2.38,3.79,3.28,5.74,2.97-2.01,5.95-4.18,8.95-6.49,3-2.32,5.56-4.54,7.69-6.66ZM937.96,152.68l9.5-2.68c.67,1.12,1.35,2.36,2.02,3.73.67,1.37,1.26,2.67,1.76,3.9h30.34v18.6h-9.25v-10.39h-54.13v10.39h-8.83v-18.6h30.85c-.73-1.79-1.48-3.44-2.27-4.94Z" style="fill: #231815; stroke-width: 0px;"/>
      <path d="M1006.8,209.92h26.06v-4.53h-33.71v-6.87h33.71v-4.02h-25.39v-6.45h25.39v-4.11h-23.2v-16.42h23.2v-3.77h-31.94v-7.12h31.94v-5.87h9.16v5.87h32.61v7.12h-32.61v3.77h24.29v16.42h-24.29v4.11h25.72v10.47h8.74v6.87h-8.74v14.83h-9.16v-3.6h-16.56v3.52c0,2.29-.32,4.01-.97,5.15-.64,1.14-1.75,2.02-3.32,2.64-1.51.56-3.45.92-5.8,1.09-2.35.17-5.32.25-8.91.25-.22-1.06-.63-2.29-1.22-3.69-.59-1.4-1.19-2.57-1.81-3.52,2.13.06,4.27.1,6.43.13,2.16.03,3.6.01,4.33-.04.78-.06,1.33-.22,1.64-.5.31-.28.46-.78.46-1.51v-3.52h-26.06v-6.7ZM1018.23,173.55v4.36h14.63v-4.36h-14.63ZM1042.02,173.55v4.36h15.13v-4.36h-15.13ZM1042.02,194.5v4.02h16.56v-4.02h-16.56ZM1042.02,205.39v4.53h16.56v-4.53h-16.56Z" style="fill: #231815; stroke-width: 0px;"/>
      <path d="M1137.34,150.67l8.49,2.35c-.95,2.12-2.07,4.25-3.36,6.37h25.8v7.46h-5.38c-1.12,2.57-2.42,4.92-3.91,7.04-1.49,2.12-3.15,4.08-5,5.87,4.93,2.57,10.39,4.44,16.39,5.61-.95.89-1.99,2.09-3.11,3.6-1.12,1.51-1.99,2.85-2.61,4.02-6.61-1.73-12.55-4.3-17.82-7.71-2.52,1.62-5.27,3.05-8.24,4.27-2.97,1.23-6.08,2.32-9.33,3.27-.45-.95-1.21-2.15-2.27-3.6-.67,2.63-1.37,5.14-2.1,7.54-.73,2.4-1.51,4.53-2.35,6.37l-6.05-2.93c.56-1.56,1.11-3.41,1.64-5.53.53-2.12,1.05-4.3,1.56-6.54h-5.46v31.01c0,2.12-.23,3.81-.67,5.07-.45,1.26-1.37,2.25-2.77,2.98-1.35.67-2.94,1.09-4.79,1.26-1.85.17-4.09.25-6.72.25-.17-1.23-.5-2.65-1.01-4.27-.5-1.62-1.04-3.04-1.6-4.27,1.62.11,3.18.17,4.67.17h3.07c.84-.06,1.26-.47,1.26-1.26v-20.36c-1.51,3.35-3.21,6.49-5.08,9.43-1.88,2.93-3.85,5.38-5.93,7.33-.39-1.23-1.01-2.67-1.85-4.32-.84-1.65-1.63-3.09-2.35-4.32,2.41-2.12,4.71-4.86,6.89-8.21,2.19-3.35,4.03-6.84,5.55-10.47h-11.18v-7.88h20.59c-2.35-1.56-5.11-3.17-8.28-4.82-3.17-1.65-6.18-3.06-9.04-4.23l5.63-5.78c2.24.84,4.62,1.84,7.14,3.02,1.12-.89,2.21-1.87,3.28-2.93,1.06-1.06,2.07-2.12,3.03-3.18h-21.27v-7.63h27.65l1.35-.34,5.8,3.6c-1.51,2.4-3.4,4.85-5.67,7.33-2.27,2.49-4.64,4.71-7.1,6.66,2.69,1.45,4.85,2.79,6.47,4.02l-4.03,4.27h4.79l1.18-.42,5.46,1.76-.59,2.68c2.19-.61,4.24-1.3,6.18-2.05,1.93-.75,3.77-1.58,5.51-2.47-2.52-2.4-4.79-5.03-6.81-7.88-1.46,1.51-2.91,2.91-4.37,4.19-.84-.73-2.02-1.61-3.53-2.64-1.51-1.03-2.8-1.83-3.87-2.39,3.31-2.46,6.4-5.49,9.29-9.09,2.88-3.6,5.17-7.36,6.85-11.27ZM1139.86,189.97h8.99c-.11,1.34-.24,2.65-.38,3.94-.14,1.29-.32,2.57-.55,3.85h19.16c-.11,1.73-.22,2.91-.34,3.52-.45,4.97-.94,9.05-1.47,12.23-.53,3.18-1.11,5.71-1.72,7.58-.62,1.87-1.35,3.23-2.19,4.06-.84.95-1.72,1.62-2.65,2.01-.92.39-2,.64-3.24.75-1.01.11-2.35.2-4.03.25-1.68.06-3.47.03-5.38-.08-.06-1.23-.31-2.64-.76-4.23-.45-1.59-1.01-2.95-1.68-4.06,1.62.11,3.12.2,4.5.25,1.37.06,2.4.08,3.07.08.62,0,1.13-.04,1.56-.13.42-.08.83-.35,1.22-.8.62-.61,1.2-2,1.77-4.15.56-2.15,1.09-5.43,1.6-9.85h-10.93c-1.46,5.08-3.87,9.67-7.23,13.74-3.36,4.08-8.41,7.43-15.13,10.06-.5-1.06-1.26-2.28-2.27-3.65-1.01-1.37-1.99-2.47-2.94-3.31,5.32-1.95,9.37-4.36,12.15-7.21,2.77-2.85,4.8-6.06,6.09-9.64h-11.01v-7.46h12.86c.22-1.23.41-2.5.55-3.81.14-1.31.27-2.64.38-3.98ZM1146.58,174.97c2.69-2.35,4.79-5.06,6.3-8.13h-14.04c2.07,2.96,4.65,5.67,7.73,8.13Z" style="fill: #231815; stroke-width: 0px;"/>
      <path d="M1187.85,155.03h53.12c-.62,3.24-1.28,6.61-1.98,10.1-.7,3.49-1.42,6.83-2.14,10.01h12.78l1.68-.42,6.22,2.43c-1.63,7.26-3.94,13.69-6.93,19.27-3,5.59-6.51,10.47-10.55,14.66,3.14,1.96,6.57,3.67,10.3,5.15,3.73,1.48,7.75,2.7,12.06,3.65-1.01.95-2.12,2.28-3.32,3.98-1.21,1.7-2.14,3.2-2.82,4.48-4.71-1.23-9.04-2.74-12.99-4.53-3.95-1.79-7.58-3.85-10.88-6.2-3.36,2.51-6.96,4.71-10.8,6.58-3.84,1.87-7.89,3.48-12.15,4.82-.56-1.23-1.33-2.63-2.31-4.19-.98-1.56-1.95-2.82-2.9-3.77,3.81-1.01,7.47-2.3,10.97-3.9,3.5-1.59,6.79-3.45,9.88-5.57-3.19-3.13-6.05-6.59-8.57-10.39-2.52-3.8-4.76-7.9-6.72-12.32-.67,4.41-1.78,8.91-3.32,13.49-1.54,4.58-3.67,9.08-6.39,13.49-2.72,4.41-6.21,8.55-10.47,12.4-.67-1.23-1.7-2.63-3.07-4.19-1.37-1.56-2.56-2.79-3.57-3.69,4.26-3.74,7.63-7.81,10.13-12.19,2.49-4.38,4.36-8.84,5.59-13.37,1.23-4.53,2.03-8.92,2.4-13.2.36-4.27.55-8.17.55-11.69v-5.78h-13.78v-9.13ZM1232.4,205.47c2.97-2.9,5.6-6.19,7.9-9.85,2.3-3.66,4.2-7.67,5.71-12.03h-21.1c.78-2.63,1.61-5.64,2.48-9.05.87-3.41,1.69-6.87,2.48-10.39h-18.74v4.11c2.02,7.65,4.75,14.62,8.2,20.91,3.45,6.28,7.8,11.72,13.07,16.3Z" style="fill: #231815; stroke-width: 0px;"/>
      <path d="M1279.05,205.73l6.56,1.09c-.34,3.69-.83,7.37-1.47,11.06-.64,3.69-1.39,6.82-2.23,9.39-.73-.39-1.75-.82-3.07-1.3-1.32-.48-2.4-.82-3.24-1.05.95-2.46,1.69-5.42,2.23-8.88.53-3.46.94-6.9,1.22-10.31ZM1278.89,202.79c-.17-.78-.5-1.94-1.01-3.48-.5-1.54-.98-2.83-1.43-3.9.95-.22,1.92-.84,2.9-1.84.98-1.01,2.09-2.29,3.32-3.85.56-.67,1.36-1.7,2.4-3.1,1.04-1.4,2.17-3.07,3.4-5.03-2.41.28-4.27.53-5.59.75-1.32.22-2.31.42-2.98.59-.67.17-1.21.36-1.6.59-.17-.78-.5-1.94-1.01-3.48-.5-1.54-.98-2.81-1.43-3.81.73-.22,1.46-.73,2.19-1.51.73-.78,1.48-1.79,2.27-3.02.62-.84,1.53-2.33,2.73-4.48,1.2-2.15,2.48-4.66,3.82-7.54,1.35-2.88,2.49-5.8,3.45-8.76l7.23,3.1c-1.57,3.63-3.35,7.28-5.34,10.94-1.99,3.66-4.02,7.03-6.09,10.1l6.72-.5c1.06-1.9,2.11-3.84,3.15-5.82,1.04-1.98,2-3.98,2.9-5.99l6.56,4.19c-2.41,4.69-5.13,9.34-8.15,13.95s-6.16,8.87-9.41,12.78l10.67-1.51-2.19-6.28,5.88-2.18c.73,1.68,1.44,3.49,2.14,5.45.7,1.96,1.36,3.83,1.97,5.61.62,1.79,1.09,3.35,1.43,4.69l-6.39,2.6-.92-3.69c-4.26.73-7.72,1.31-10.38,1.76-2.66.45-4.74.84-6.22,1.17-1.49.34-2.59.62-3.32.84-.73.22-1.29.45-1.68.67ZM1288.05,206.65l5.97-1.42c.56,2.79,1.05,5.81,1.47,9.05.42,3.24.68,6.09.8,8.55l-6.39,1.68c-.06-2.46-.27-5.35-.63-8.67-.37-3.32-.77-6.38-1.22-9.18ZM1297.04,204.72l5.63-1.93c.95,2.57,1.88,5.34,2.77,8.3.9,2.96,1.57,5.5,2.02,7.63l-5.97,2.26c-.39-2.23-1.02-4.86-1.89-7.88-.87-3.02-1.72-5.81-2.56-8.38ZM1307.97,154.44h44.47v65.53c0,2.07-.21,3.69-.63,4.86-.42,1.17-1.28,2.09-2.56,2.77-1.23.61-2.79,1.01-4.67,1.17-1.88.17-4.13.25-6.77.25-.11-1.06-.39-2.35-.84-3.85-.45-1.51-.92-2.79-1.43-3.85,1.51.06,3,.1,4.45.13,1.46.03,2.44.04,2.94.04.56-.06.94-.2,1.13-.42.2-.22.29-.61.29-1.17v-57.57h-28.33v66.79h-8.07v-74.66ZM1325.12,185.61l4.71-1.51h-12.1v-6.87h5.38c-.22-1.56-.66-3.42-1.3-5.57-.64-2.15-1.39-4.09-2.23-5.82l5.21-1.76c.9,1.73,1.68,3.67,2.35,5.82.67,2.15,1.15,3.98,1.43,5.49l-5.21,1.84h8.49c.56-1.9,1.13-4.06,1.72-6.49.59-2.43,1.05-4.59,1.39-6.49l6.3,1.68c-.62,1.9-1.23,3.84-1.85,5.82-.62,1.98-1.23,3.81-1.85,5.49h5.13v6.87h-11.1c.56,1.01,1.11,2.09,1.64,3.27.53,1.17.94,2.18,1.22,3.02l-3.28,1.26h11.01v6.79h-14.04v6.03c0,.95.1,1.62.29,2.01.2.39.66.59,1.39.59h7.15c.67,0,1.51-.03,2.52-.08,1.01-.06,1.79-.17,2.35-.34.11.89.21,1.93.29,3.1.08,1.17.18,2.21.29,3.1-.56.22-1.33.36-2.31.42-.98.06-1.95.08-2.9.08h-8.15c-3.36,0-5.56-.7-6.6-2.09-1.04-1.4-1.56-3.69-1.56-6.87v-5.95h-2.69v-6.79h9.41c-.34-.89-.73-1.89-1.18-2.97-.45-1.09-.9-2.11-1.35-3.06Z" style="fill: #231815; stroke-width: 0px;"/>
      <path d="M1371.1,202.79c-.23-.84-.62-2.11-1.18-3.81-.56-1.7-1.09-3.11-1.6-4.23,1.06-.22,2.1-.81,3.11-1.76,1.01-.95,2.16-2.18,3.45-3.69.56-.61,1.36-1.59,2.4-2.93,1.04-1.34,2.2-2.93,3.49-4.78-2.41.28-4.29.53-5.63.75-1.34.22-2.35.42-3.03.59-.67.17-1.2.36-1.6.59-.22-.84-.62-2.07-1.18-3.69-.56-1.62-1.07-2.99-1.51-4.11.78-.22,1.56-.71,2.31-1.47.76-.75,1.58-1.77,2.48-3.06.62-.73,1.56-2.16,2.82-4.32,1.26-2.15,2.61-4.65,4.03-7.5,1.43-2.85,2.68-5.78,3.74-8.8l7.99,3.27c-1.68,3.69-3.6,7.36-5.76,11.02-2.16,3.66-4.36,7.03-6.6,10.1l6.64-.5c1.12-1.79,2.2-3.65,3.24-5.57,1.04-1.93,2-3.84,2.9-5.74l7.56,4.53c-2.52,4.47-5.34,8.91-8.45,13.32-3.11,4.41-6.29,8.49-9.54,12.23l8.74-1.17c-.67-2.51-1.37-4.86-2.1-7.04l6.39-1.68c.67,1.9,1.34,3.93,2.02,6.08.67,2.15,1.26,4.25,1.77,6.28.5,2.04.9,3.79,1.18,5.24l-6.89,2.18c-.17-1.28-.42-2.79-.76-4.53-3.98.67-7.22,1.21-9.71,1.63-2.49.42-4.44.78-5.84,1.09-1.4.31-2.45.57-3.15.8-.7.22-1.28.45-1.72.67ZM1371.68,205.73l7.4,1.17c-.34,3.74-.84,7.46-1.51,11.15-.67,3.69-1.46,6.84-2.35,9.47-.84-.45-2-.92-3.49-1.42-1.49-.5-2.7-.89-3.66-1.17.95-2.46,1.72-5.42,2.31-8.88.59-3.46,1.02-6.9,1.3-10.31ZM1381.43,206.73l6.64-1.26c.56,2.91,1.05,6.03,1.47,9.39.42,3.35.68,6.28.8,8.8l-6.89,1.34c-.06-2.46-.28-5.39-.67-8.8-.39-3.41-.84-6.56-1.35-9.47ZM1390.26,205.22l6.14-1.93c.95,2.51,1.88,5.24,2.77,8.17.9,2.93,1.54,5.46,1.93,7.58l-6.47,2.26c-.39-2.18-1.01-4.76-1.85-7.75-.84-2.99-1.68-5.77-2.52-8.34ZM1415.56,150.59l8.57,2.35c-.9,2.12-1.88,4.22-2.94,6.28h15.13l1.6-.34,5.88,2.93c-1.57,4.19-3.52,8.09-5.84,11.69-2.33,3.6-4.95,6.97-7.86,10.1,2.58,2.01,5.38,3.87,8.41,5.57,3.03,1.7,6.25,3.11,9.67,4.23-.9.89-1.92,2.09-3.07,3.6-1.15,1.51-2.03,2.82-2.65,3.94l-.59-.25v28.07h-8.83v-2.68h-18.91v2.77h-8.49v-27.74l-1.93.84c-.56-1.06-1.35-2.29-2.35-3.69-1.01-1.4-1.99-2.51-2.94-3.35,7-2.63,13.53-6.48,19.58-11.56-1.35-1.51-2.59-3.04-3.74-4.61-1.15-1.56-2.2-3.1-3.15-4.61-2.24,2.51-4.51,4.75-6.81,6.7-.45-.56-1.08-1.24-1.89-2.05-.81-.81-1.64-1.61-2.48-2.39-.84-.78-1.6-1.4-2.27-1.84,3.81-2.79,7.3-6.3,10.47-10.52,3.16-4.22,5.64-8.7,7.44-13.45ZM1411.61,198.02h24.63c-2.24-1.23-4.39-2.57-6.43-4.02-2.05-1.45-3.96-2.99-5.76-4.61-1.96,1.68-3.98,3.23-6.05,4.65-2.07,1.42-4.2,2.75-6.39,3.98ZM1414.13,218.21h18.91v-12.32h-18.91v12.32ZM1432.04,166.76h-15.38l-.59.92c1.01,1.68,2.16,3.38,3.45,5.11,1.29,1.73,2.74,3.44,4.37,5.11,1.57-1.73,3.05-3.53,4.46-5.41,1.4-1.87,2.63-3.78,3.7-5.74Z" style="fill: #231815; stroke-width: 0px;"/>
      <path d="M1492.05,152.68l9.58-2.6c.78,1.45,1.6,3.05,2.44,4.78.84,1.73,1.57,3.35,2.19,4.86h30.18v18.44h-9.33v-10.22h-13.11v11.15c0,1.17.17,2,.5,2.47.34.48,1.12.71,2.35.71h13.03c1.18,0,2.53-.04,4.08-.13,1.54-.08,2.76-.24,3.66-.46.05,1.23.17,2.6.34,4.11.17,1.51.34,2.79.5,3.85-.84.22-2.03.39-3.57.5-1.54.11-3.1.17-4.67.17h-13.45c-3.08,0-5.48-.36-7.19-1.09-1.71-.73-2.9-1.93-3.57-3.6-.67-1.68-1.01-3.88-1.01-6.62v-11.06h-7.99c-.28,3.58-.88,6.73-1.81,9.47-.92,2.74-2.41,5.1-4.46,7.08-2.05,1.98-4.9,3.66-8.57,5.03-3.67,1.37-8.45,2.44-14.33,3.23-.28-1.12-.86-2.4-1.72-3.85-.87-1.45-1.7-2.63-2.48-3.52,4.99-.56,9.02-1.28,12.1-2.18,3.08-.89,5.45-2.02,7.1-3.39,1.65-1.37,2.83-3.02,3.53-4.94.7-1.93,1.16-4.23,1.39-6.91h-15.3v11.98h-8.91v-20.2h31.6c-.95-2.46-1.99-4.8-3.11-7.04ZM1463.56,218.71h32.19v-14.75h-23.28v-8.38h56.32v8.38h-23.54v14.75h31.69v8.46h-73.38v-8.46Z" style="fill: #231815; stroke-width: 0px;"/>
      <path d="M1557.36,154.11h31.86v29.92h-22.86v45h-8.99v-74.92ZM1580.81,165.84v-5.2h-14.46v5.2h14.46ZM1580.81,171.96h-14.46v5.53h14.46v-5.53ZM1623.77,154.11h4.37v64.02c0,2.51-.29,4.48-.88,5.91-.59,1.42-1.7,2.53-3.32,3.31-1.57.73-3.59,1.19-6.05,1.38-2.47.2-5.49.29-9.08.29-.11-1.06-.39-2.32-.84-3.77-.45-1.45-.95-2.79-1.51-4.02h-21.94v4.27h-8.15v-36.03h32.19v30.42c1.85.06,3.57.08,5.17.08h3.32c1.34,0,2.02-.64,2.02-1.93v-33.85h-23.54v-30.08h28.24ZM1600.06,201.96v-5.78h-15.55v5.78h15.55ZM1600.06,208.49h-15.55v6.03h15.55v-6.03ZM1619.06,165.84v-5.2h-14.96v5.2h14.96ZM1619.06,171.96h-14.96v5.7h14.96v-5.7Z" style="fill: #231815; stroke-width: 0px;"/>
      <path d="M1645.96,181.42l4.79-6.7c1.68.73,3.53,1.59,5.55,2.6,2.02,1.01,3.95,2.01,5.8,3.02,1.85,1.01,3.36,1.93,4.54,2.77l-5.04,7.46c-1.12-.84-2.58-1.8-4.37-2.89-1.79-1.09-3.68-2.19-5.67-3.31-1.99-1.12-3.85-2.09-5.59-2.93ZM1647.81,221.9c1.51-2.12,3.19-4.64,5.04-7.54,1.85-2.9,3.73-6,5.63-9.3,1.9-3.3,3.67-6.54,5.3-9.72l6.64,5.95c-2.24,4.41-4.67,8.95-7.27,13.62-2.6,4.67-5.17,9.04-7.69,13.11l-7.65-6.12ZM1651,158.3l5.04-6.54c1.68.73,3.53,1.61,5.55,2.64,2.02,1.03,3.95,2.07,5.8,3.1,1.85,1.03,3.39,1.97,4.62,2.81l-5.3,7.37c-1.12-.89-2.58-1.9-4.37-3.02-1.79-1.12-3.7-2.23-5.72-3.35-2.02-1.12-3.9-2.12-5.63-3.02ZM1671.34,188.63c-.22-.89-.64-2.21-1.26-3.94-.62-1.73-1.18-3.21-1.68-4.44.95-.22,1.89-.78,2.82-1.68.92-.89,1.92-2.09,2.98-3.6.56-.73,1.37-1.9,2.44-3.52,1.06-1.62,2.24-3.53,3.53-5.74,1.29-2.21,2.59-4.61,3.91-7.21,1.32-2.6,2.51-5.21,3.57-7.84l9.41,2.6c-2.13,4.47-4.5,8.84-7.1,13.11-2.61,4.27-5.23,8.2-7.86,11.77l25.72-1.34c-2.97-4.36-6.03-8.41-9.16-12.15l7.73-3.85c2.24,2.51,4.45,5.22,6.64,8.13,2.19,2.91,4.19,5.77,6.01,8.59,1.82,2.82,3.26,5.38,4.33,7.67l-8.15,4.61c-.62-1.51-1.46-3.18-2.52-5.03-6.72.45-12.37.84-16.94,1.17-4.57.34-8.31.62-11.22.84-2.91.22-5.23.43-6.93.63-1.71.2-3.03.39-3.95.59-.92.2-1.7.41-2.31.63ZM1673.86,194.33h43.46v34.36h-9.16v-3.18h-25.55v3.52h-8.74v-34.69ZM1682.61,217.21h25.55v-14.58h-25.55v14.58Z" style="fill: #231815; stroke-width: 0px;"/>
      <path d="M1737.66,211.93l10.68-3.1v-20.53h-8.91v-8.3h8.91v-15.84h-9.67v-8.3h27.4v8.3h-9.25v15.84h7.9v8.3h-7.9v17.93l8.57-2.77,1.51,8.55c-4.6,1.56-9.27,3.13-14.04,4.69-4.76,1.56-9.13,2.99-13.11,4.27l-2.1-9.05ZM1762.79,218.21h24.04v-9.05h-17.99v-8.13h17.99v-7.88h-17.32v-38.8h43.79v38.8h-17.48v7.88h18.49v8.13h-18.49v9.05h21.35v8.13h-54.38v-8.13ZM1777.76,162.07v7.96h9.67v-7.96h-9.67ZM1777.76,177.4v8.04h9.67v-8.04h-9.67ZM1795.32,162.07v7.96h9.5v-7.96h-9.5ZM1795.32,177.4v8.04h9.5v-8.04h-9.5Z" style="fill: #231815; stroke-width: 0px;"/>
      <path d="M1833.4,202.88c-.17-.78-.52-1.93-1.05-3.44-.53-1.51-1.02-2.77-1.47-3.77,1.01-.22,1.99-.82,2.94-1.8.95-.98,2.07-2.25,3.36-3.81.56-.67,1.39-1.75,2.48-3.23,1.09-1.48,2.28-3.23,3.57-5.24-2.47.28-4.37.53-5.72.75-1.34.22-2.37.42-3.07.59-.7.17-1.25.36-1.64.59-.22-.78-.6-1.95-1.13-3.52-.53-1.56-1-2.85-1.39-3.85.73-.22,1.46-.74,2.19-1.55.73-.81,1.48-1.83,2.27-3.06.56-.78,1.44-2.25,2.65-4.4,1.2-2.15,2.45-4.66,3.74-7.54,1.29-2.88,2.41-5.8,3.36-8.76l7.65,3.1c-1.51,3.63-3.25,7.29-5.21,10.98-1.96,3.69-4.01,7.04-6.14,10.06l6.81-.5c1.06-1.79,2.1-3.63,3.11-5.53,1.01-1.9,1.93-3.8,2.77-5.7l6.98,3.77c-2.47,4.58-5.2,9.12-8.2,13.62-3,4.5-6.07,8.65-9.2,12.44l9.58-1.59c-.62-2.23-1.26-4.27-1.93-6.12l5.97-1.68c.67,1.73,1.34,3.59,2.02,5.57.67,1.98,1.26,3.91,1.76,5.78.5,1.87.9,3.51,1.18,4.9l-6.39,2.09-.92-4.27c-4.09.84-7.41,1.52-9.96,2.05-2.55.53-4.55.98-6.01,1.34-1.46.36-2.54.67-3.24.92-.7.25-1.28.52-1.72.8ZM1835,205.73l6.39,1.09c-.45,3.63-1.07,7.28-1.85,10.94-.79,3.66-1.65,6.77-2.61,9.34-.73-.39-1.74-.8-3.03-1.21-1.29-.42-2.35-.74-3.19-.96,1.12-2.51,2.02-5.49,2.69-8.92.67-3.44,1.2-6.86,1.6-10.27ZM1843.15,206.65l5.97-1.34c.5,2.79.97,5.82,1.39,9.09s.69,6.13.8,8.59l-6.22,1.51c-.06-2.46-.28-5.35-.67-8.67-.39-3.32-.81-6.38-1.26-9.18ZM1851.14,205.06l5.72-1.68c.73,2.18,1.44,4.55,2.14,7.12.7,2.57,1.19,4.78,1.47,6.62l-5.97,1.84c-.28-1.9-.76-4.15-1.43-6.75-.67-2.6-1.32-4.99-1.93-7.17ZM1865.26,203.88l6.56,2.26c-.62,2.91-1.4,6.01-2.35,9.3-.95,3.3-2.07,6.09-3.36,8.38l-6.56-3.27c1.29-2.12,2.42-4.75,3.4-7.88.98-3.13,1.75-6.06,2.31-8.8ZM1879.88,200.7l5.46-2.26h-20.51v-40.89h13.37c.45-1.23.85-2.5,1.22-3.81.36-1.31.66-2.5.88-3.56l8.41,1.34-2.94,6.03h19.59v40.89h-18.83c1.62,1.79,3.14,3.77,4.54,5.95,1.4,2.18,2.38,4.13,2.94,5.87l-6.72,2.68c-.56-1.73-1.53-3.74-2.9-6.03-1.37-2.29-2.87-4.36-4.5-6.2ZM1878.71,178.91l3.61-3.52,4.2,2.6c1.4-1.56,2.58-3.24,3.53-5.03h-7.82c-.84,1.23-1.79,2.4-2.86,3.52-1.07,1.12-2.27,2.21-3.61,3.27-.45-.61-1.05-1.24-1.81-1.89-.76-.64-1.44-1.13-2.06-1.47v14.92h25.97v-26.65h-25.97v11.4c2.13-1.62,3.89-3.39,5.3-5.32,1.4-1.93,2.47-3.81,3.19-5.66l5.63.75-1.26,2.85h7.9l1.01-.25,3.7,1.42c-.73,2.24-1.64,4.29-2.73,6.16-1.09,1.87-2.31,3.59-3.66,5.15,2.07,1.62,3.75,3.07,5.04,4.36l-3.78,3.94c-1.29-1.4-2.97-2.93-5.04-4.61-1.57,1.34-3.22,2.51-4.96,3.52-1.74,1.01-3.53,1.87-5.38,2.6-.39-.61-.92-1.35-1.6-2.22-.67-.87-1.32-1.55-1.93-2.05,3.47-1.17,6.61-2.9,9.41-5.2-1.46-1.01-2.8-1.87-4.03-2.6ZM1872.66,203.63h7.57v14.25c0,1.06.18,1.73.55,2.01.36.28,1.19.42,2.48.42h7.73c.73,0,1.29-.15,1.68-.46.39-.31.67-.96.84-1.97s.28-2.54.34-4.61c.78.62,1.86,1.19,3.24,1.72,1.37.53,2.59.94,3.66,1.22-.28,3.02-.74,5.34-1.39,6.96-.64,1.62-1.57,2.74-2.77,3.35-1.21.61-2.79.92-4.75.92h-9.67c-2.58,0-4.55-.29-5.93-.88-1.37-.59-2.31-1.56-2.82-2.93-.5-1.37-.76-3.23-.76-5.57v-14.41ZM1894.68,205.22l5.97-2.93c2.02,2.57,3.87,5.4,5.55,8.51s2.89,5.85,3.61,8.25l-6.39,3.35c-.39-1.62-1.04-3.42-1.93-5.41-.9-1.98-1.93-4.01-3.11-6.08-1.18-2.07-2.41-3.97-3.7-5.7Z" style="fill: #231815; stroke-width: 0px;"/>
      <path d="M1990.08,174.22l7.23,4.36c-1.68,1.73-3.48,3.39-5.38,4.99-1.91,1.59-3.9,3.14-5.97,4.65h14.04v7.21h-25.64c-2.63,1.45-5.38,2.85-8.24,4.19h26.65v28.99h-8.74v-2.01h-33.71v2.26h-8.32v-20.11c-2.52.78-5.03,1.51-7.52,2.18-2.49.67-5,1.31-7.52,1.93-.39-.95-1.02-2.23-1.89-3.85-.87-1.62-1.67-2.88-2.4-3.77,5.77-1.12,11.49-2.5,17.15-4.15,5.66-1.65,11.15-3.53,16.47-5.66h-31.52v-7.21h30.6v-4.78h-21.69v-6.87h21.69v-4.36h-25.97v-18.52h66.4v18.52h-31.69v4.36h17.82v4.86c3.08-2.29,5.8-4.69,8.15-7.21ZM1937.97,159.89v6.03h10.51v-6.03h-10.51ZM1950.32,210h33.71v-4.02h-33.71v4.02ZM1950.32,215.7v4.53h33.71v-4.53h-33.71ZM1956.71,159.89v6.03h10.84v-6.03h-10.84ZM1971.42,188.21c2.75-1.56,5.32-3.16,7.73-4.78h-15.05v4.78h7.31ZM1975.79,159.89v6.03h11.1v-6.03h-11.1Z" style="fill: #231815; stroke-width: 0px;"/>
      <path d="M878.82,275.85h6.84l10.87,20.5h.22l10.87-20.5h6.61v38.99h-5.27v-31.51h-.28l-3.19,6.42-8.97,16.37-8.97-16.37-3.19-6.42h-.28v31.51h-5.27v-38.99Z" style="fill: #231815; stroke-width: 0px;"/>
      <path d="M924.77,277.02v-.78c0-1.68.95-2.85,3.14-2.85s3.14,1.17,3.14,2.85v.78c0,1.68-.95,2.85-3.14,2.85s-3.14-1.17-3.14-2.85ZM925.27,285.9h5.21v28.94h-5.21v-28.94Z" style="fill: #231815; stroke-width: 0px;"/>
      <path d="M939,300.37c0-9.27,4.76-15.14,13.06-15.14,5.71,0,9.3,2.79,10.98,6.93l-4.31,2.12c-.95-2.85-3.31-4.58-6.67-4.58-4.99,0-7.51,3.41-7.51,8.16v5.03c0,4.75,2.52,8.16,7.51,8.16,3.53,0,5.94-1.79,7.4-4.92l3.81,2.35c-1.85,4.36-5.66,7.04-11.21,7.04-8.29,0-13.06-5.87-13.06-15.14Z" style="fill: #231815; stroke-width: 0px;"/>
      <path d="M970.77,314.84v-28.94h5.21v5.53h.28c.95-2.85,3.53-5.53,8.18-5.53h1.74v5.2h-2.58c-4.82,0-7.62,1.9-7.62,4.75v18.99h-5.21Z" style="fill: #231815; stroke-width: 0px;"/>
      <path d="M990.83,300.37c0-9.22,5.32-15.14,13.22-15.14s13.22,5.92,13.22,15.14-5.32,15.14-13.22,15.14-13.22-5.92-13.22-15.14ZM1011.73,302.55v-4.36c0-5.64-3.14-8.49-7.68-8.49s-7.68,2.85-7.68,8.49v4.36c0,5.64,3.14,8.49,7.68,8.49s7.68-2.85,7.68-8.49Z" style="fill: #231815; stroke-width: 0px;"/>
      <path d="M1025.8,314.84v-28.94h5.21v4.75h.28c1.34-3.18,3.81-5.42,8.18-5.42,5.94,0,9.58,4.08,9.58,11.12v18.49h-5.21v-17.71c0-4.86-2.02-7.37-6.11-7.37-3.42,0-6.72,1.73-6.72,5.25v19.83h-5.21Z" style="fill: #231815; stroke-width: 0px;"/>
      <path d="M1080.44,314.84c-3.19,0-4.71-2.01-5.1-4.8h-.28c-1.18,3.58-4.26,5.47-8.41,5.47-6.05,0-9.58-3.35-9.58-8.66,0-5.59,4.09-8.6,12.38-8.6h5.49v-2.63c0-3.85-2.07-6.03-6.44-6.03-3.42,0-5.6,1.68-7.12,4.13l-3.14-2.85c1.74-3.13,5.15-5.64,10.53-5.64,7.23,0,11.38,3.69,11.38,9.94v15.25h3.25v4.41h-2.97ZM1074.94,306.35v-4.47h-5.55c-4.76,0-6.89,1.45-6.89,4.13v1.12c0,2.68,2.07,4.19,5.32,4.19,4.09,0,7.12-2.07,7.12-4.97Z" style="fill: #231815; stroke-width: 0px;"/>
      <path d="M1098.09,314.84c-3.59,0-5.49-2.12-5.49-5.47v-19.05h-4.65v-4.41h2.58c1.96,0,2.58-.73,2.58-2.68v-5.31h4.71v7.99h6.22v4.41h-6.22v20.11h5.77v4.41h-5.49Z" style="fill: #231815; stroke-width: 0px;"/>
      <path d="M1111.87,277.02v-.78c0-1.68.95-2.85,3.14-2.85s3.14,1.17,3.14,2.85v.78c0,1.68-.95,2.85-3.14,2.85s-3.14-1.17-3.14-2.85ZM1112.38,285.9h5.21v28.94h-5.21v-28.94Z" style="fill: #231815; stroke-width: 0px;"/>
      <path d="M1126.11,300.37c0-9.22,5.32-15.14,13.22-15.14s13.22,5.92,13.22,15.14-5.32,15.14-13.22,15.14-13.22-5.92-13.22-15.14ZM1147.01,302.55v-4.36c0-5.64-3.14-8.49-7.68-8.49s-7.68,2.85-7.68,8.49v4.36c0,5.64,3.14,8.49,7.68,8.49s7.68-2.85,7.68-8.49Z" style="fill: #231815; stroke-width: 0px;"/>
      <path d="M1161.07,314.84v-28.94h5.21v4.75h.28c1.34-3.18,3.81-5.42,8.18-5.42,5.94,0,9.58,4.08,9.58,11.12v18.49h-5.21v-17.71c0-4.86-2.02-7.37-6.11-7.37-3.42,0-6.72,1.73-6.72,5.25v19.83h-5.21Z" style="fill: #231815; stroke-width: 0px;"/>
      <path d="M1191.89,309.93l3.53-3.02c2.19,2.74,4.87,4.3,8.41,4.3s5.72-1.62,5.72-4.3c0-2.12-1.12-3.63-4.65-4.13l-2.47-.39c-5.55-.78-9.41-3.07-9.41-8.44,0-5.7,4.43-8.71,10.53-8.71,4.93,0,8.01,1.73,10.48,4.64l-3.31,3.13c-1.4-1.84-3.87-3.46-7.34-3.46s-5.32,1.62-5.32,4.08,1.68,3.63,5.04,4.13l2.47.39c6.39.95,9.02,3.74,9.02,8.21,0,5.64-4.26,9.16-11.1,9.16-5.38,0-8.91-2.18-11.6-5.59Z" style="fill: #231815; stroke-width: 0px;"/>
      <path d="M1262.89,314.84l-3.7-11h-15.24l-3.75,11h-5.49l13.56-38.99h6.84l13.5,38.99h-5.71ZM1251.68,280.82h-.28l-6.16,18.21h12.61l-6.16-18.21Z" style="fill: #231815; stroke-width: 0px;"/>
      <path d="M1277.4,290.32h-4.65v-4.41h4.65v-5.36c0-4.25,2.24-7.04,6.78-7.04h4.54v4.41h-6.11v7.99h6.11v4.41h-6.11v24.52h-5.21v-24.52Z" style="fill: #231815; stroke-width: 0px;"/>
      <path d="M1297.41,290.32h-4.65v-4.41h4.65v-5.36c0-4.25,2.24-7.04,6.78-7.04h4.54v4.41h-6.11v7.99h6.11v4.41h-6.11v24.52h-5.21v-24.52Z" style="fill: #231815; stroke-width: 0px;"/>
      <path d="M1336.91,314.84c-3.19,0-4.71-2.01-5.1-4.8h-.28c-1.18,3.58-4.26,5.47-8.41,5.47-6.05,0-9.58-3.35-9.58-8.66,0-5.59,4.09-8.6,12.38-8.6h5.49v-2.63c0-3.85-2.07-6.03-6.44-6.03-3.42,0-5.6,1.68-7.12,4.13l-3.14-2.85c1.74-3.13,5.15-5.64,10.53-5.64,7.23,0,11.38,3.69,11.38,9.94v15.25h3.25v4.41h-2.97ZM1331.42,306.35v-4.47h-5.55c-4.76,0-6.89,1.45-6.89,4.13v1.12c0,2.68,2.07,4.19,5.32,4.19,4.09,0,7.12-2.07,7.12-4.97Z" style="fill: #231815; stroke-width: 0px;"/>
      <path d="M1347,277.02v-.78c0-1.68.95-2.85,3.14-2.85s3.14,1.17,3.14,2.85v.78c0,1.68-.95,2.85-3.14,2.85s-3.14-1.17-3.14-2.85ZM1347.5,285.9h5.21v28.94h-5.21v-28.94Z" style="fill: #231815; stroke-width: 0px;"/>
      <path d="M1363.3,314.84v-28.94h5.21v5.53h.28c.95-2.85,3.53-5.53,8.18-5.53h1.74v5.2h-2.58c-4.82,0-7.62,1.9-7.62,4.75v18.99h-5.21Z" style="fill: #231815; stroke-width: 0px;"/>
      <path d="M1383.03,309.93l3.53-3.02c2.19,2.74,4.87,4.3,8.41,4.3s5.72-1.62,5.72-4.3c0-2.12-1.12-3.63-4.65-4.13l-2.47-.39c-5.55-.78-9.41-3.07-9.41-8.44,0-5.7,4.43-8.71,10.53-8.71,4.93,0,8.01,1.73,10.48,4.64l-3.31,3.13c-1.4-1.84-3.87-3.46-7.34-3.46s-5.32,1.62-5.32,4.08,1.68,3.63,5.04,4.13l2.47.39c6.39.95,9.02,3.74,9.02,8.21,0,5.64-4.26,9.16-11.1,9.16-5.38,0-8.91-2.18-11.6-5.59Z" style="fill: #231815; stroke-width: 0px;"/>
      <path d="M1450.33,314.84c-3.19,0-4.71-2.01-5.1-4.8h-.28c-1.18,3.58-4.26,5.47-8.41,5.47-6.05,0-9.58-3.35-9.58-8.66,0-5.59,4.09-8.6,12.38-8.6h5.49v-2.63c0-3.85-2.07-6.03-6.44-6.03-3.42,0-5.6,1.68-7.12,4.13l-3.14-2.85c1.74-3.13,5.15-5.64,10.53-5.64,7.23,0,11.38,3.69,11.38,9.94v15.25h3.25v4.41h-2.97ZM1444.84,306.35v-4.47h-5.55c-4.76,0-6.89,1.45-6.89,4.13v1.12c0,2.68,2.07,4.19,5.32,4.19,4.09,0,7.12-2.07,7.12-4.97Z" style="fill: #231815; stroke-width: 0px;"/>
      <path d="M1460.92,314.84v-28.94h5.21v4.75h.28c1.34-3.18,3.81-5.42,8.18-5.42,5.94,0,9.58,4.08,9.58,11.12v18.49h-5.21v-17.71c0-4.86-2.02-7.37-6.11-7.37-3.42,0-6.72,1.73-6.72,5.25v19.83h-5.21Z" style="fill: #231815; stroke-width: 0px;"/>
      <path d="M1512.81,310.09h-.22c-1.35,3.58-4.37,5.42-8.35,5.42-7.28,0-11.66-5.75-11.66-15.14s4.37-15.14,11.66-15.14c3.98,0,7,1.84,8.35,5.42h.22v-17.15h5.21v41.34h-5.21v-4.75ZM1512.81,305.68v-10.61c0-3.07-3.14-5.31-7.06-5.31-4.65,0-7.62,3.3-7.62,8.16v4.92c0,4.86,2.97,8.16,7.62,8.16,3.92,0,7.06-2.24,7.06-5.31Z" style="fill: #231815; stroke-width: 0px;"/>
      <path d="M1541.78,295.35c0-13.02,6.11-20.17,16.08-20.17,6.61,0,11.15,3.07,13.67,8.66l-4.48,2.57c-1.46-3.85-4.48-6.37-9.19-6.37-6.39,0-10.25,4.75-10.25,12.35v5.92c0,7.6,3.87,12.35,10.25,12.35,4.82,0,8.07-2.74,9.53-6.76l4.37,2.63c-2.52,5.59-7.28,8.99-13.9,8.99-9.97,0-16.08-7.15-16.08-20.17Z" style="fill: #231815; stroke-width: 0px;"/>
      <path d="M1597.65,285.9h5.04l-12.61,35.25c-1.34,3.63-2.75,4.86-7.17,4.86h-2.86v-4.41h4.76l1.96-5.59-10.76-30.11h5.21l6.44,18.49,1.51,5.42h.28l1.68-5.42,6.5-18.49Z" style="fill: #231815; stroke-width: 0px;"/>
      <path d="M1609.53,273.5h5.21v17.15h.22c1.35-3.58,4.37-5.42,8.35-5.42,7.28,0,11.66,5.75,11.66,15.14s-4.37,15.14-11.66,15.14c-3.98,0-7-1.84-8.35-5.42h-.22v4.75h-5.21v-41.34ZM1629.42,302.83v-4.92c0-4.86-2.97-8.16-7.62-8.16-3.92,0-7.06,2.23-7.06,5.31v10.61c0,3.07,3.14,5.31,7.06,5.31,4.65,0,7.62-3.3,7.62-8.16Z" style="fill: #231815; stroke-width: 0px;"/>
      <path d="M1641.64,300.37c0-9.16,5.1-15.14,13.17-15.14s12.72,6.14,12.72,14.25v2.18h-20.45v1.17c0,4.8,2.97,8.27,8.18,8.27,3.64,0,6.28-1.73,7.84-4.69l3.36,2.85c-2.02,3.74-6.22,6.26-11.65,6.26-8.07,0-13.17-5.98-13.17-15.14ZM1647.07,297.64v.39h14.91v-.56c0-4.8-2.8-8.04-7.17-8.04s-7.73,3.46-7.73,8.21Z" style="fill: #231815; stroke-width: 0px;"/>
      <path d="M1676.04,314.84v-28.94h5.21v5.53h.28c.95-2.85,3.53-5.53,8.18-5.53h1.74v5.2h-2.58c-4.82,0-7.62,1.9-7.62,4.75v18.99h-5.21Z" style="fill: #231815; stroke-width: 0px;"/>
      <path d="M1695.77,309.93l3.53-3.02c2.19,2.74,4.88,4.3,8.41,4.3s5.72-1.62,5.72-4.3c0-2.12-1.12-3.63-4.65-4.13l-2.47-.39c-5.55-.78-9.41-3.07-9.41-8.44,0-5.7,4.43-8.71,10.53-8.71,4.93,0,8.01,1.73,10.48,4.64l-3.31,3.13c-1.4-1.84-3.87-3.46-7.34-3.46s-5.32,1.62-5.32,4.08,1.68,3.63,5.04,4.13l2.47.39c6.39.95,9.02,3.74,9.02,8.21,0,5.64-4.26,9.16-11.1,9.16-5.38,0-8.91-2.18-11.6-5.59Z" style="fill: #231815; stroke-width: 0px;"/>
      <path d="M1727.32,285.9h5.21v4.75h.22c1.35-3.58,4.37-5.42,8.35-5.42,7.28,0,11.65,5.75,11.65,15.14s-4.37,15.14-11.65,15.14c-3.98,0-7-1.84-8.35-5.42h-.22v15.92h-5.21v-40.11ZM1747.21,302.83v-4.92c0-4.86-2.97-8.16-7.62-8.16-3.92,0-7.06,2.23-7.06,5.31v10.61c0,3.07,3.14,5.31,7.06,5.31,4.65,0,7.62-3.3,7.62-8.16Z" style="fill: #231815; stroke-width: 0px;"/>
      <path d="M1782.62,314.84c-3.19,0-4.71-2.01-5.1-4.8h-.28c-1.18,3.58-4.26,5.47-8.41,5.47-6.05,0-9.58-3.35-9.58-8.66,0-5.59,4.09-8.6,12.38-8.6h5.49v-2.63c0-3.85-2.07-6.03-6.44-6.03-3.42,0-5.6,1.68-7.12,4.13l-3.14-2.85c1.74-3.13,5.15-5.64,10.53-5.64,7.23,0,11.38,3.69,11.38,9.94v15.25h3.25v4.41h-2.97ZM1777.13,306.35v-4.47h-5.55c-4.76,0-6.89,1.45-6.89,4.13v1.12c0,2.68,2.07,4.19,5.32,4.19,4.09,0,7.12-2.07,7.12-4.97Z" style="fill: #231815; stroke-width: 0px;"/>
      <path d="M1791.14,300.37c0-9.27,4.76-15.14,13.06-15.14,5.71,0,9.3,2.79,10.98,6.93l-4.31,2.12c-.95-2.85-3.31-4.58-6.67-4.58-4.99,0-7.51,3.41-7.51,8.16v5.03c0,4.75,2.52,8.16,7.51,8.16,3.53,0,5.94-1.79,7.4-4.92l3.81,2.35c-1.85,4.36-5.66,7.04-11.21,7.04-8.29,0-13.06-5.87-13.06-15.14Z" style="fill: #231815; stroke-width: 0px;"/>
      <path d="M1820.51,300.37c0-9.16,5.1-15.14,13.17-15.14s12.72,6.14,12.72,14.25v2.18h-20.45v1.17c0,4.8,2.97,8.27,8.18,8.27,3.64,0,6.28-1.73,7.84-4.69l3.36,2.85c-2.02,3.74-6.22,6.26-11.65,6.26-8.07,0-13.17-5.98-13.17-15.14ZM1825.94,297.64v.39h14.91v-.56c0-4.8-2.8-8.04-7.17-8.04s-7.73,3.46-7.73,8.21Z" style="fill: #231815; stroke-width: 0px;"/>
      <path d="M1108.34,389.33l-3.7-11h-15.24l-3.75,11h-5.49l13.56-38.99h6.84l13.5,38.99h-5.71ZM1097.13,355.31h-.28l-6.16,18.21h12.61l-6.16-18.21Z" style="fill: #231815; stroke-width: 0px;"/>
      <path d="M1139.66,384.58h-.22c-1.35,3.58-4.37,5.42-8.35,5.42-7.28,0-11.66-5.75-11.66-15.14s4.37-15.14,11.66-15.14c3.98,0,7,1.84,8.35,5.42h.22v-17.15h5.21v41.34h-5.21v-4.75ZM1139.66,380.17v-10.61c0-3.07-3.14-5.31-7.06-5.31-4.65,0-7.62,3.3-7.62,8.16v4.92c0,4.86,2.97,8.16,7.62,8.16,3.92,0,7.06-2.24,7.06-5.31Z" style="fill: #231815; stroke-width: 0px;"/>
      <path d="M1155.47,389.33v-28.94h5.21v4.75h.28c1.23-2.96,3.87-5.42,7.73-5.42s7.28,1.79,8.8,5.87h.11c1.06-3.13,3.98-5.87,8.85-5.87,5.83,0,9.3,4.08,9.3,11.12v18.49h-5.21v-17.71c0-4.86-1.85-7.37-5.88-7.37-3.36,0-6.44,1.73-6.44,5.25v19.83h-5.21v-17.71c0-4.86-1.85-7.37-5.83-7.37-3.31,0-6.5,1.73-6.5,5.25v19.83h-5.21Z" style="fill: #231815; stroke-width: 0px;"/>
      <path d="M1205.51,351.51v-.78c0-1.68.95-2.85,3.14-2.85s3.14,1.17,3.14,2.85v.78c0,1.68-.95,2.85-3.14,2.85s-3.14-1.17-3.14-2.85ZM1206.01,360.39h5.21v28.94h-5.21v-28.94Z" style="fill: #231815; stroke-width: 0px;"/>
      <path d="M1221.81,389.33v-28.94h5.21v4.75h.28c1.34-3.18,3.81-5.42,8.18-5.42,5.94,0,9.58,4.08,9.58,11.12v18.49h-5.21v-17.71c0-4.86-2.02-7.37-6.11-7.37-3.42,0-6.72,1.73-6.72,5.25v19.83h-5.21Z" style="fill: #231815; stroke-width: 0px;"/>
      <path d="M1254.82,351.51v-.78c0-1.68.95-2.85,3.14-2.85s3.14,1.17,3.14,2.85v.78c0,1.68-.95,2.85-3.14,2.85s-3.14-1.17-3.14-2.85ZM1255.32,360.39h5.21v28.94h-5.21v-28.94Z" style="fill: #231815; stroke-width: 0px;"/>
      <path d="M1268.44,384.41l3.53-3.02c2.19,2.74,4.87,4.3,8.41,4.3s5.72-1.62,5.72-4.3c0-2.12-1.12-3.63-4.65-4.13l-2.47-.39c-5.55-.78-9.41-3.07-9.41-8.44,0-5.7,4.43-8.71,10.53-8.71,4.93,0,8.01,1.73,10.48,4.64l-3.31,3.13c-1.4-1.84-3.87-3.46-7.34-3.46s-5.32,1.62-5.32,4.08,1.68,3.63,5.04,4.13l2.47.39c6.39.95,9.02,3.74,9.02,8.21,0,5.64-4.26,9.16-11.1,9.16-5.38,0-8.91-2.18-11.6-5.59Z" style="fill: #231815; stroke-width: 0px;"/>
      <path d="M1306.71,389.33c-3.59,0-5.49-2.12-5.49-5.47v-19.05h-4.65v-4.41h2.58c1.96,0,2.58-.73,2.58-2.68v-5.31h4.71v7.99h6.22v4.41h-6.22v20.11h5.77v4.41h-5.49Z" style="fill: #231815; stroke-width: 0px;"/>
      <path d="M1321,389.33v-28.94h5.21v5.53h.28c.95-2.85,3.53-5.53,8.18-5.53h1.74v5.2h-2.58c-4.82,0-7.62,1.9-7.62,4.75v18.99h-5.21Z" style="fill: #231815; stroke-width: 0px;"/>
      <path d="M1364.2,389.33c-3.19,0-4.71-2.01-5.1-4.8h-.28c-1.18,3.58-4.26,5.47-8.41,5.47-6.05,0-9.58-3.35-9.58-8.66,0-5.59,4.09-8.6,12.38-8.6h5.49v-2.63c0-3.85-2.07-6.03-6.44-6.03-3.42,0-5.6,1.68-7.12,4.13l-3.14-2.85c1.74-3.13,5.15-5.64,10.53-5.64,7.23,0,11.38,3.69,11.38,9.94v15.25h3.25v4.41h-2.97ZM1358.71,380.84v-4.47h-5.55c-4.76,0-6.89,1.45-6.89,4.13v1.12c0,2.68,2.07,4.19,5.32,4.19,4.09,0,7.12-2.07,7.12-4.97Z" style="fill: #231815; stroke-width: 0px;"/>
      <path d="M1381.85,389.33c-3.59,0-5.49-2.12-5.49-5.47v-19.05h-4.65v-4.41h2.58c1.96,0,2.58-.73,2.58-2.68v-5.31h4.71v7.99h6.22v4.41h-6.22v20.11h5.77v4.41h-5.49Z" style="fill: #231815; stroke-width: 0px;"/>
      <path d="M1395.64,351.51v-.78c0-1.68.95-2.85,3.14-2.85s3.14,1.17,3.14,2.85v.78c0,1.68-.95,2.85-3.14,2.85s-3.14-1.17-3.14-2.85ZM1396.14,360.39h5.21v28.94h-5.21v-28.94Z" style="fill: #231815; stroke-width: 0px;"/>
      <path d="M1409.87,374.86c0-9.22,5.32-15.14,13.22-15.14s13.22,5.92,13.22,15.14-5.32,15.14-13.22,15.14-13.22-5.92-13.22-15.14ZM1430.77,377.04v-4.36c0-5.64-3.14-8.49-7.68-8.49s-7.68,2.85-7.68,8.49v4.36c0,5.64,3.14,8.49,7.68,8.49s7.68-2.85,7.68-8.49Z" style="fill: #231815; stroke-width: 0px;"/>
      <path d="M1444.84,389.33v-28.94h5.21v4.75h.28c1.34-3.18,3.81-5.42,8.18-5.42,5.94,0,9.58,4.08,9.58,11.12v18.49h-5.21v-17.71c0-4.86-2.02-7.37-6.11-7.37-3.42,0-6.72,1.73-6.72,5.25v19.83h-5.21Z" style="fill: #231815; stroke-width: 0px;"/>
      <path d="M1491.52,369.83c0-13.13,6.56-20.17,16.7-20.17s16.7,7.04,16.7,20.17-6.56,20.17-16.7,20.17-16.7-7.04-16.7-20.17ZM1519.09,373.02v-6.37c0-7.43-4.37-12.12-10.87-12.12s-10.87,4.69-10.87,12.12v6.37c0,7.43,4.37,12.12,10.87,12.12s10.87-4.69,10.87-12.12Z" style="fill: #231815; stroke-width: 0px;"/>
      <path d="M1535.62,364.81h-4.65v-4.41h4.65v-5.36c0-4.25,2.24-7.04,6.78-7.04h4.54v4.41h-6.11v7.99h6.11v4.41h-6.11v24.52h-5.21v-24.52Z" style="fill: #231815; stroke-width: 0px;"/>
      <path d="M1555.62,364.81h-4.65v-4.41h4.65v-5.36c0-4.25,2.24-7.04,6.78-7.04h4.54v4.41h-6.11v7.99h16.64v28.94h-5.21v-24.52h-11.43v24.52h-5.21v-24.52ZM1571.76,351.51v-.78c0-1.68.95-2.85,3.14-2.85s3.14,1.17,3.14,2.85v.78c0,1.68-.95,2.85-3.14,2.85s-3.14-1.17-3.14-2.85Z" style="fill: #231815; stroke-width: 0px;"/>
      <path d="M1585.99,374.86c0-9.27,4.76-15.14,13.06-15.14,5.71,0,9.3,2.79,10.98,6.93l-4.31,2.12c-.95-2.85-3.31-4.58-6.67-4.58-4.99,0-7.51,3.41-7.51,8.16v5.03c0,4.75,2.52,8.16,7.51,8.16,3.53,0,5.94-1.79,7.4-4.92l3.81,2.35c-1.85,4.36-5.66,7.04-11.21,7.04-8.29,0-13.06-5.87-13.06-15.14Z" style="fill: #231815; stroke-width: 0px;"/>
      <path d="M1615.36,374.86c0-9.16,5.1-15.14,13.17-15.14s12.72,6.14,12.72,14.25v2.18h-20.45v1.17c0,4.8,2.97,8.27,8.18,8.27,3.64,0,6.28-1.73,7.84-4.69l3.36,2.85c-2.02,3.74-6.22,6.26-11.66,6.26-8.07,0-13.17-5.98-13.17-15.14ZM1620.79,372.12v.39h14.9v-.56c0-4.8-2.8-8.04-7.17-8.04s-7.73,3.46-7.73,8.21Z" style="fill: #231815; stroke-width: 0px;"/>
    </g>
  </g>
</svg>