<?xml version="1.0" encoding="UTF-8"?>
<svg id="a" data-name="图层 1" xmlns="http://www.w3.org/2000/svg" width="3000" height="2000" viewBox="0 0 3000 2000">
  <rect width="3000" height="2000" style="fill: #fff; stroke-width: 0px;"/>
  <g>
    <g>
      <g id="b" data-name="&amp;lt;径向重复&amp;gt;">
        <path d="M778.25,1035.68c.97-.88,2.37.39,1.64,1.49l-47.53,90.41c-1.54,2.93-1.4,6.48.35,9.27l41.77,66.55c1.6,2.82,4.55,4.54,7.72,4.5l80.26-.95c3.17-.04,6.08-1.83,7.62-4.69l40.27-67.52c1.69-2.83,1.74-6.39.14-9.28l-49.53-89.26c-.75-1.09.62-2.39,1.61-1.53l89.77,77.64c4.77,4.13,6.02,11.17,2.96,16.77l-55.94,102.55c-2.28,4.18-6.57,6.78-11.23,6.81l-65.46.34-65.45,1.22c-4.66.09-9-2.41-11.38-6.54l-58.22-101.2c-3.18-5.52-2.09-12.59,2.59-16.83l88.01-79.75Z" style="fill: #000; stroke-width: 0px;"/>
      </g>
      <g id="c" data-name="&amp;lt;径向重复&amp;gt;">
        <path d="M768.57,981.28c1.24.41.85,2.27-.46,2.18l-101.21,3.59c-3.27.12-6.25,2.01-7.77,4.94l-36.12,69.85c-1.62,2.81-1.62,6.25,0,9.01l40.95,69.8c1.62,2.76,4.61,4.41,7.82,4.33l77.97,1.5c3.27.06,6.35-1.67,8.02-4.52l51.7-88c.56-1.2,2.35-.65,2.11.64l-21.62,117.42c-1.15,6.24-6.56,10.85-12.88,10.98l-115.82,2.29c-4.73.09-9.1-2.36-11.45-6.43l-33.02-57.15-33.77-56.7c-2.4-4.03-2.44-9.09-.09-13.23l57.58-101.57c3.14-5.54,9.74-8.13,15.71-6.15l112.32,37.19Z" style="fill: #000; stroke-width: 0px;"/>
      </g>
      <g id="d" data-name="&amp;lt;径向重复&amp;gt;">
        <path d="M810.31,945.61c.27,1.29-1.51,1.88-2.1.69l-53.68-86.82c-1.74-2.81-4.85-4.47-8.12-4.33l-77.89,3.3c-3.22,0-6.17,1.71-7.72,4.51l-39.32,70.75c-1.55,2.8-1.48,6.24.2,9.02l37.7,69.02c1.58,2.9,4.6,4.72,7.88,4.77l101.23,1.26c1.31-.11,1.74,1.73.51,2.17l-111.39,39.78c-5.92,2.11-12.58-.32-15.84-5.79l-59.87-100.26c-2.44-4.09-2.53-9.14-.22-13.23l32.44-57.48,31.68-57.91c2.25-4.12,6.57-6.68,11.29-6.69l115.79-.37c6.32-.02,11.83,4.47,13.12,10.68l24.31,116.94Z" style="fill: #000; stroke-width: 0px;"/>
      </g>
      <g id="e" data-name="&amp;lt;径向重复&amp;gt;">
        <path d="M861.75,964.32c-.97.88-2.37-.39-1.64-1.49l47.53-90.41c1.54-2.93,1.4-6.48-.35-9.27l-41.77-66.55c-1.6-2.82-4.55-4.54-7.72-4.5l-80.26.95c-3.17.04-6.08,1.83-7.62,4.69l-40.27,67.52c-1.69,2.83-1.74,6.39-.14,9.28l49.53,89.26c.75,1.09-.62,2.39-1.61,1.53l-89.77-77.64c-4.77-4.13-6.02-11.17-2.96-16.77l55.94-102.55c2.28-4.18,6.57-6.78,11.23-6.81l65.46-.34,65.45-1.22c4.66-.09,9,2.41,11.38,6.54l58.22,101.2c3.18,5.52,2.09,12.59-2.59,16.83l-88.01,79.75Z" style="fill: #000; stroke-width: 0px;"/>
      </g>
      <g id="f" data-name="&amp;lt;径向重复&amp;gt;">
        <path d="M871.43,1018.72c-1.24-.41-.85-2.27.46-2.18l101.21-3.59c3.27-.12,6.25-2.01,7.77-4.94l36.12-69.85c1.62-2.81,1.62-6.25,0-9.01l-40.95-69.8c-1.62-2.76-4.61-4.41-7.82-4.33l-77.97-1.5c-3.27-.06-6.35,1.67-8.02,4.52l-51.7,88c-.56,1.2-2.35.65-2.11-.64l21.62-117.42c1.15-6.24,6.56-10.85,12.88-10.98l115.82-2.29c4.73-.09,9.1,2.36,11.45,6.43l33.02,57.15,33.77,56.7c2.4,4.03,2.44,9.09.09,13.23l-57.58,101.57c-3.14,5.54-9.74,8.13-15.71,6.15l-112.32-37.19Z" style="fill: #000; stroke-width: 0px;"/>
      </g>
      <g id="g" data-name="&amp;lt;径向重复&amp;gt;">
        <path d="M829.69,1054.39c-.27-1.29,1.51-1.88,2.1-.69l53.68,86.82c1.74,2.81,4.85,4.47,8.12,4.33l77.89-3.3c3.22,0,6.17-1.71,7.72-4.51l39.32-70.75c1.55-2.8,1.48-6.24-.2-9.02l-37.7-69.02c-1.58-2.9-4.6-4.72-7.88-4.77l-101.23-1.26c-1.31.11-1.74-1.73-.51-2.17l111.39-39.78c5.92-2.11,12.58.32,15.84,5.79l59.87,100.26c2.44,4.09,2.53,9.14.22,13.23l-32.44,57.48-31.68,57.91c-2.25,4.12-6.57,6.68-11.29,6.69l-115.79.37c-6.32.02-11.83-4.47-13.12-10.68l-24.31-116.94Z" style="fill: #000; stroke-width: 0px;"/>
      </g>
    </g>
    <path d="M820,1079.18l-68.57-39.59v-79.18l68.57-39.59,68.57,39.59v79.18l-68.57,39.59ZM777.97,1024.26l42.03,24.26,42.03-24.26v-48.53l-42.03-24.26-42.03,24.26v48.53Z" style="fill: #000; stroke-width: 0px;"/>
  </g>
  <g>
    <g>
      <path d="M1284.76,865.36c1.72-2.77,3.8-3.5,6.25-2.19,6.89,4.52,9.19,11.44,6.89,20.76l-3.23,16.61c-1.44,3.64-.79,6.12,1.94,7.43,7.03-.58,14.07-.95,21.11-1.09,5.6,0,9.26,1.82,10.98,5.46.14,5.98-2.58,9.62-8.18,10.93l-8.62,1.31c-3.88.15-6.54.87-7.97,2.19-1.29,1.02-1.44,2.7-.43,5.03,3.88,5.83,1.72,10.85-6.46,15.08-3.45,2.62-5.17,4.23-5.17,4.81,1.86,1.6,5.74,1.24,11.63-1.09,4.88-1.02,8.33.87,10.34,5.68.57,7.14-3.66,11.73-12.71,13.77l-8.62,2.62c-2.3.29-4.81,1.46-7.54,3.5-1.29,1.17-1.94,2.99-1.94,5.46-.43,2.48.86,3.86,3.88,4.15l11.2-3.5c4.02-1.6,7.46.07,10.34,5.03.29,6.56-2.51,10.56-8.4,12.02-5.03,1.46-10.12,3.5-15.29,6.12-2.15,1.75-3.09,3.86-2.8,6.34,1.43,4.95,5.17,5.83,11.2,2.62,7.46-2.33,14.93-4.37,22.4-6.12.72.15,1.29,2.4,1.72,6.77-.72,5.24-3.74,9.11-9.05,11.58-10.63,5.39-22.11,10.27-34.46,14.64-5.74,1.46-11.49,4.37-17.23,8.74-7.18,5.24-14,2.91-20.46-6.99-4.45-4.66-3.38-8.38,3.23-11.14,5.74-2.77,11.49-5.03,17.23-6.77,3.02-.29,5.24-1.75,6.68-4.37,1.43-5.39,0-8.38-4.31-8.96-7.61,4.52-14,2.99-19.17-4.59-3.16-4.95-1.65-8.67,4.52-11.14,2.87-.73,5.74-1.24,8.62-1.53,8.9,0,12.99-3.79,12.28-11.36-.72-1.89-1.94-2.84-3.66-2.84-5.31.87-10.7,1.97-16.15,3.28-2.3,1.46-5.17.95-8.62-1.53-2.44-2.19-4.24-5.54-5.38-10.05-.29-2.33,1.22-4.37,4.52-6.12,2.87-.87,5.74-1.46,8.62-1.75,5.6,0,9.19-1.38,10.77-4.15,0-.87-.72-2.77-2.15-5.68-3.02-5.24-4.88-9.32-5.6-12.24-.58-5.54-3.45-6.92-8.62-4.15-4.17,1.31-7.11,1.82-8.83,1.53-4.31-2.19-7.11-5.17-8.4-8.96-3.74-7.14-1.15-11.36,7.75-12.67,7.18-.44,14.36-1.16,21.54-2.19,2.58.73,4.66-.58,6.25-3.93-.86-15-.29-27.02,1.72-36.06,1.43-12.67,6.32-14.86,14.65-6.56.86,1.46,1.36,2.55,1.51,3.28-3.3,11.66-4.88,23.97-4.74,36.93,1.15,3.35,3.8,3.57,7.97.66,1.58-1.75,2.37-4.37,2.37-7.87,1-8.16,1.43-17.48,1.29-27.97,0-2.62.93-5.54,2.8-8.74ZM1230.49,878.47c3.16-2.77,6.96-2.84,11.42-.22,4.59,3.21,6.96,10.27,7.11,21.2.29,3.35-2.23,5.83-7.54,7.43-3.3-.14-6.32-3.13-9.05-8.96-3.45-5.68-4.81-11-4.09-15.95.57-1.6,1.29-2.77,2.15-3.5ZM1280.46,928.73c-3.88.44-8.04,1.09-12.49,1.97-6.32.73-8.26,3.86-5.82,9.4,1.43,4.81,1.72,9.98.86,15.52-.14,2.62,1.22,4.15,4.09,4.59,3.45-.44,6.03-2.33,7.75-5.68,2.3-5.83,5.53-11.65,9.69-17.48,3.02-2.91,4.09-5.54,3.23-7.87-.58-.44-3.02-.58-7.32-.44ZM1318.15,874.98c4.02-2.91,7.54-2.62,10.55.87,4.74,6.56,2.66,10.85-6.25,12.89-4.6,1.46-9.12,3.86-13.57,7.21-4.31,3.35-6.46,4.66-6.46,3.93,2.01-7.43,7.25-15.73,15.72-24.91ZM1320.3,969.82c5.31-2.48,11.49-1.38,18.52,3.28,5.89,4.95,7.46,11.14,4.74,18.57-1.15,1.89-2.87,2.7-5.17,2.4-7.75-.44-13.71-5.54-17.88-15.3-.86-5.68-.94-8.67-.22-8.96ZM1359.07,870.17c3.73-3.93,8.04-3.5,12.92,1.31,6.46,7.14,9.83,18.72,10.12,34.75-.86,6.56,1.22,9.69,6.25,9.4,4.45-1.89,9.55.29,15.29,6.56,2.58,3.79,2.87,7.36.86,10.71-2.58,4.52-6.61,7.07-12.06,7.65-7.61.29-10.55,3.79-8.83,10.49.86,12.53,1.43,25.28,1.72,38.24,1,18.5-.22,33.58-3.66,45.24-1.01,5.1-4.31,8.45-9.91,10.05-6.61,2.48-12.35,5.61-17.23,9.4-6.75,4.22-11.42,3.5-14-2.19.14-5.24-3.45-10.78-10.77-16.61-.86-1.46.86-1.89,5.17-1.31,5.89,1.31,10.91,1.82,15.08,1.53,4.59,0,7.82-3.21,9.69-9.62,2.01-22.87,2.58-48.08,1.72-75.61-1.29-3.5-4.31-4.3-9.05-2.4-4.88.58-9.77,1.39-14.65,2.4-8.18.44-13.5-4.59-15.94-15.08.86-4.95,4.31-7.5,10.34-7.65l17.23-3.06c4.31-.58,7.46-1.38,9.48-2.4,3.02-1.45,4.09-4.37,3.23-8.74-.29-12.82-1.15-24.69-2.58-35.62-.72-3.64-.86-6.12-.43-7.43Z" style="fill: #000; stroke-width: 0px;"/>
      <path d="M1593.97,916.5c5.74-1.16,10.05-1.45,12.92-.87,5.31,1.6,8.4,3.13,9.26,4.59,1.58,4.08-.29,7.65-5.6,10.71-4.31,1.75-10.05,2.92-17.23,3.5-23.84,2.62-45.38,7.58-64.62,14.86-1.72,1.17-2.94,2.55-3.66,4.15l-12.92,34.96c-6.75,18.65-17.23,39.04-31.45,61.19-2.73,3.93-4.02,3.71-3.88-.66,2.87-11.8,6.68-23.6,11.42-35.4,6.6-15.73,12.92-33.22,18.95-52.45,2.3-3.79,2.3-8.16,0-13.11-5.74-8.3-5.67-13.69.22-16.17,4.74-2.19,10.62-3.2,17.66-3.06,22.97-3.79,45.95-7.87,68.92-12.24ZM1552.4,867.98c2.01-6.41,5.53-8.96,10.55-7.65,10.77,5.1,13.57,13.11,8.4,24.04-1.15,3.5-.79,5.9,1.08,7.21,2.73.44,6.03.29,9.91-.44,2.73-.44,5.46-.66,8.18-.66,3.73-1.02,6.32-3.71,7.75-8.09l1.72-12.67c2.01-6.41,6.39-8.16,13.14-5.24,6.89,3.06,9.83,8.23,8.83,15.52-.86,13.7-8.26,22.73-22.18,27.1-1.87-.44-3.74-1.16-5.6-2.19-3.16-.44-8.9.08-17.23,1.53-12.64,2.19-24.12,4.66-34.46,7.43-9.48,4.37-18.67,4.74-27.57,1.09-3.74-1.6-5.67-4.08-5.82-7.43.86-2.04.93-5.24.22-9.62-.29-4.08-.36-8.45-.22-13.11-.72-4.37.93-8.67,4.95-12.89,2.44-2.48,5.46-1.97,9.05,1.53,1.43,2.19,1.79,4.95,1.08,8.3-.43,3.64-.58,7.29-.43,10.93-.43,8.16,3.52,10.27,11.85,6.34l8.62-1.97c2.73.15,4.66-1.75,5.82-5.68-.72-11.36.07-19.16,2.37-23.38ZM1584.06,944.03c5.17-.29,9.19.66,12.06,2.84,3.73,3.21,5.17,6.48,4.31,9.83-.72,3.93-2.8,6.7-6.25,8.3-3.16,1.46-6.39,2.55-9.69,3.28-1.87,2.19-2.51,4.95-1.94,8.3.14,7.29,3.45,9.69,9.91,7.21l24.34-2.84c6.17-2.33,12.42-.22,18.74,6.34,3.88,5.54,3.16,10.49-2.15,14.86-3.16,1.6-6.61,2.11-10.34,1.53-9.62-3.2-21.47-3.42-35.54-.66-1.87.29-3.45,1.53-4.74,3.71.43,12.97-2.01,25.35-7.32,37.15-1.72,3.64-3.23,7.28-4.52,10.93-1.44,4.37-2.87,5.97-4.31,4.81-5.46-7.29-8.04-21.2-7.75-41.74.86-8.45-2.23-11.29-9.26-8.52-8.18,2.04-16.3,4.45-24.34,7.21-4.6,1.6-8.62-.29-12.06-5.68-3.3-4.51-2.23-8.67,3.23-12.46,11.49-4.66,24.41-7.87,38.77-9.62,2.01,0,3.52-1.16,4.52-3.5,2.01-5.68.36-8.74-4.95-9.18-6.03,1.17-10.84-.29-14.43-4.37-2.3-3.5-2.87-6.41-1.72-8.74.86-2.62,3.8-5.03,8.83-7.21,12.2-5.1,24.41-9.03,36.62-11.8Z" style="fill: #000; stroke-width: 0px;"/>
      <path d="M1782.99,888.31c5.31-1.31,8.9-1.09,10.77.66,6.03,5.1,5.24,9.62-2.37,13.55-5.74,1.17-11.49,2.55-17.23,4.15-3.3.87-6.03,2.55-8.18,5.03-5.6,11.22-9.98,22.22-13.14,33,0,2.77,1.43,4.08,4.31,3.93,1.72.29,4.59-.29,8.62-1.75l10.55-1.97c5.02-2.91,9.76-1.38,14.22,4.59,1.86,5.68,1.43,12.24-1.29,19.67-1.44,2.04-1.44,6.12,0,12.24.72,4.66-1.94,8.52-7.97,11.58-4.17,2.33-9.12,5.39-14.86,9.18-3.45,2.04-5.46,4.15-6.03,6.34-3.3,6.85-7.11,6.12-11.42-2.19-2.73-4.95-4.88-10.49-6.46-16.61l-1.72-1.53c-.58,0-2.08,2.26-4.52,6.77l-7.54,17.48c-.58,3.5-2.51,6.12-5.82,7.87-1.58.73-2.15-1.09-1.72-5.46,4.74-27.39,12.35-56.45,22.83-87.19,3.16-7.72,4.59-13.33,4.31-16.83-.43-1.75-1.22-3.42-2.37-5.03-4.02-7.14-1.37-11.07,7.97-11.8,9.48-1.6,19.17-3.5,29.08-5.68ZM1765.33,959.76l-4.31,3.06c-4.31,3.21-6.61,6.7-6.89,10.49l1.08,6.77c.86,6.99,3.73,9.62,8.62,7.87,4.02-2.48,6.53-5.97,7.54-10.49,1.86-7.28,2.37-13.11,1.51-17.48.43-3.79-2.08-3.86-7.54-.22ZM1835.11,884.59c4.02-1.02,7.68.29,10.98,3.93,5.17,9.91,1.51,17.48-10.98,22.73-1.29.44-2.01,2.19-2.15,5.24l-1.08,20.54c-.43,5.98,1.72,8.67,6.46,8.09,3.16.44,5.24,3.06,6.25,7.87,0,6.41-2.08,10.13-6.25,11.14-6.32,2.48-9.41,6.05-9.26,10.71-2.15,24.62-11.49,46.11-28,64.47-4.17,2.91-5.53,1.82-4.09-3.28,2.15-5.83,4.59-11.65,7.32-17.48,5.17-12.38,8.04-25.86,8.62-40.43-1.44-2.62-3.74-4.08-6.89-4.37-4.6-1.46-8.33-4.95-11.2-10.49-2.3-3.06-.5-6.26,5.38-9.62l8.62-2.62c3.02-.29,5.17-2.26,6.46-5.9.29-10.93.29-19.74,0-26.44-.43-.87-1.15-1.89-2.15-3.06-7.61-5.1-10.91-11.65-9.91-19.67,2.3-4.81,6.6-7.28,12.92-7.43,5.02,0,11.34-1.31,18.95-3.93ZM1848.46,962.39c-4.74-8.16-4.6-13.11.43-14.86,5.02-1.75,8.33-3.2,9.91-4.37,1-1.02,1.51-3.79,1.51-8.3l-.22-18.14c.43-12.38,6.03-14.28,16.8-5.68,4.31,4.08,5.46,12.31,3.45,24.69.43,4.08,3.16,5.32,8.18,3.71,7.46,0,12.92,4.15,16.37,12.46,3.73,6.99,1.15,10.49-7.75,10.49l-10.34.22c-4.02-.44-6.54.87-7.54,3.93-.43,4.95-.36,10.2.22,15.73,1,21.13.65,37.95-1.08,50.48.29,4.22-2.23,8.45-7.54,12.67-3.59,3.93-6.54,3.71-8.83-.66-.86-2.77-1.72-6.19-2.58-10.27-.14-20.83-.07-42.25.22-64.25-.29-3.79-2.37-5.68-6.25-5.68-1.72,0-3.38-.73-4.95-2.19ZM1867.63,903.6c-3.16.87-5.46.95-6.89.22-7.32-4.66-10.48-10.63-9.48-17.92,2.15-4.22,6.25-6.41,12.28-6.56,2.87.15,7.54-.95,14-3.28,3.88-.87,7.75.37,11.63,3.71,4.88,8.89,1,15.66-11.63,20.32-4.31,1.89-7.61,3.06-9.91,3.5Z" style="fill: #000; stroke-width: 0px;"/>
      <path d="M2053.21,869.73c1.86-2.77,3.8-3.71,5.82-2.84,10.48,1.75,17.52,7.94,21.11,18.57,1.72,4.23,4.59,5.61,8.62,4.15,10.34-.44,20.89-.58,31.66-.44,3.45,0,6.6-.66,9.48-1.97,3.3-3.93,6.89-4.66,10.77-2.19,3.3,2.92,6.96,7.87,10.98,14.86,6.32,10.78,2.66,16.03-10.98,15.73-3.45-.44-6.32-1.16-8.62-2.19-3.88-.87-7.47-.51-10.77,1.09-4.31,1.6-6.46,2.11-6.46,1.53,6.89-7.14,10.05-12.82,9.48-17.05-.86-1.02-3.52-1.45-7.97-1.31-11.2.44-22.47,1.17-33.82,2.19-2.87.44-5.74,1.46-8.62,3.06-4.6,5.1-9.77,5.32-15.51.66-4.02-1.16-11.78-.58-23.26,1.75-5.74,1.6-11.49,3.5-17.23,5.68-3.3.15-5.74,2.11-7.32,5.9l-2.15,17.48c-3.16,7.14-7.68,11.66-13.57,13.55-4.45-4.81-5.96-13.99-4.52-27.53.43-11.94,3.8-23.24,10.12-33.87,3.59-1.16,8.11,1.53,13.57,8.09,2.58,1.6,5.46,2.04,8.62,1.31l25.85-3.5c10.19-.14,12.13-4.88,5.82-14.2-1.29-4.51-1.65-7.35-1.08-8.52ZM2063.12,932.23c5.31-.14,8.9,2.7,10.77,8.52,1.15,4.08.29,8.45-2.58,13.11-2.73,4.23-4.09,6.7-4.09,7.43,1.43,2.04,4.09,2.7,7.97,1.97,5.46.44,9.76-.87,12.92-3.93,4.59-5.54,8.69-6.12,12.28-1.75,5.31,6.99,4.88,14.28-1.29,21.85-7.61,12.82-11.78,24.48-12.49,34.96-2.15,9.18.86,15.15,9.05,17.92,12.06,1.31,26.71-.8,43.94-6.34,4.59-1.89,7.46-5.75,8.62-11.58l2.15-8.74c1.43-6.85,2.51-7.94,3.23-3.28.57,6.99,2.66,12.31,6.25,15.95,6.6,3.21,7.75,7.07,3.45,11.58l-2.15,4.37c-.58,6.7-4.81,11.14-12.71,13.33-18.09,7.72-36.98,8.81-56.65,3.28-10.05-2.48-16.94-9.25-20.68-20.32-2.01-16.17-.22-31.98,5.38-47.42,2.01-4.22,2.87-7.5,2.58-9.83-.58-.87-1.15-1.38-1.72-1.53-3.16.87-6.39,2.04-9.69,3.5l-8.62,3.71c-3.16,1.31-5.38,3.79-6.68,7.43-5.17,10.78-12.35,22.44-21.54,34.96-5.74,7.87-13.43,16.32-23.05,25.35-3.74,4.22-5.03,4.3-3.88.22,6.32-13.84,14.43-30.59,24.34-50.26,2.58-2.91,2.94-5.46,1.08-7.65l-7.97-1.53c-4.31-1.89-6.89-4.08-7.75-6.56.43-3.2,2.94-5.75,7.54-7.65,5.74-1.75,11.49-3.28,17.23-4.59,3.3.15,6.03-1.46,8.18-4.81l8.62-17.48c2.15-4.66,4.81-9.4,7.97-14.2ZM2037.7,912.56c5.02-4.37,9.26-2.62,12.71,5.24,1,6.99-5.67,15.81-20.03,26.44l-4.31,3.06c-4.6,2.04-7.18,2.92-7.75,2.62-.29-.58.22-3.06,1.51-7.43,3.3-9.47,9.26-19.45,17.88-29.94ZM2088.75,906.88c4.16-2.91,7.82-1.67,10.98,3.71,2.44,3.06,1.79,6.7-1.94,10.93-1.44,3.93-.79,6.7,1.94,8.3,2.01,1.6,4.88,1.75,8.62.44,5.74-3.64,10.05-5.24,12.92-4.81,3.16.58,4.88,2.92,5.17,6.99.72,3.35-.5,6.12-3.66,8.3-6.03,3.93-13.71,5.32-23.05,4.15-8.18-.44-12.92-3.71-14.22-9.83-1.44-7.14-1.37-13.69.22-19.67.14-3.2,1.15-6.04,3.02-8.52Z" style="fill: #000; stroke-width: 0px;"/>
      <path d="M2249.55,885.9c1.86-5.1,3.3-7.5,4.31-7.21,3.3,1.75,5.82,3.57,7.54,5.46,2.3,1.89,5.17,2.33,8.62,1.31,2.87-.58,5.74-.95,8.62-1.09,3.73,0,6.6-.51,8.62-1.53,5.74-4.81,10.41-4.59,14,.66-.14,8.45-4.88,19.52-14.22,33.22-3.16,3.64-4.02,6.99-2.58,10.05.57.87,1.36,1.75,2.37,2.62,6.46,4.66,10.62,10.2,12.49,16.61,3.16,12.97,1.22,25.64-5.82,38.02-3.45,5.54-7.47,8.82-12.06,9.83-4.45,1.17-6.89-.51-7.32-5.03.29-4.22-2.3-7.79-7.75-10.71-3.02-1.02-4.95-1.02-5.82,0-.58,1.46-.86,3.93-.86,7.43-.43,18.65.36,36.71,2.37,54.2.14,2.04-.79,4.95-2.8,8.74-3.16,3.93-5.17,5.75-6.03,5.46-4.31-3.93-7.11-10.13-8.4-18.57-2.3-57.4-1.72-99.94,1.72-127.62,1-10.49,2.01-17.77,3.02-21.85ZM2280.78,899.01c-.58-2.62-2.51-2.91-5.82-.87-3.45,1.46-6.89,3.21-10.34,5.24-1.15,1.17-2.08,3.5-2.8,6.99-2.01,16.46-2.8,35.84-2.37,58.13.29,1.46.86,2.92,1.72,4.37,2.73,2.62,7.54,3.57,14.43,2.84,2.44-.29,4.09-.87,4.95-1.75,2.44-2.77,4.02-8.38,4.74-16.83,1.15-6.99.65-13.4-1.51-19.23-2.15-6.85-5.74-8.16-10.77-3.93-3.3,2.19-4.6,1.02-3.88-3.5,1.86-6.56,4.88-14.49,9.05-23.82,1.72-2.91,2.58-5.46,2.58-7.65ZM2381.58,955.39c6.46-1.75,11.56,0,15.29,5.24,3.45,4.95,4.09,8.74,1.94,11.36-1.87,1.17-5.74,1.53-11.63,1.09-10.34.44-19.53,1.24-27.57,2.4-3.02,0-5.46,2.04-7.32,6.12-8.62,11.66-16.73,23.31-24.34,34.96-8.62,12.53-17.16,21.05-25.63,25.57-4.74,2.62-6.25,1.89-4.52-2.19,7.61-15.15,18.09-31.76,31.45-49.82.72-1.46,1.08-2.62,1.08-3.5-.14-1.16-2.51-1.46-7.11-.87-7.18,1.17-12.57-2.55-16.15-11.14-.72-2.91,1.15-5.17,5.6-6.77,20.39-4.81,43.36-8.96,68.92-12.46ZM2336.78,872.35c2.15-1.6,5.24-1.75,9.26-.44,9.19,1.89,15.51,8.23,18.95,19.01,1,1.46,2.73,2.55,5.17,3.28,9.91,1.31,17.59.08,23.05-3.71,6.32,1.89,11.27,7.65,14.86,17.26,1,3.5.57,5.9-1.29,7.21-2.58,1.75-5.96,2.33-10.12,1.75-5.6-1.75-10.91-2.26-15.94-1.53-4.74.73-5.1-.95-1.08-5.03,3.3-1.89,4.59-4.3,3.88-7.21-.72-.87-3.38-1.24-7.97-1.09-3.16-.14-6.39,0-9.69.44-1.87.29-4.52,2.7-7.97,7.21-2.73,3.64-5.74,5.24-9.05,4.81-2.44,0-4.02-1.45-4.74-4.37-.86-3.79-3.74-4.95-8.62-3.5-11.2,2.62-16.3,7.87-15.29,15.73-.58,2.92-.94,5.83-1.08,8.74-1.01,4.66-4.31,9.03-9.91,13.11-2.58,0-4.24-1.97-4.95-5.9-2.01-11.94-1.08-22.95,2.8-33,1.43-7.43,4.38-9.83,8.83-7.21,3.73,1.02,11.2.37,22.4-1.97,3.45-.58,5.6-1.31,6.46-2.19.43-3.2-1.65-6.41-6.25-9.62-4.02-4.22-4.6-8.16-1.72-11.8ZM2330.75,931.14c18.95-3.93,32.74-5.54,41.35-4.81,3.02,5.98.65,10.78-7.11,14.42-8.33,2.77-16.58,4.66-24.77,5.68-5.31.58-9.48-.22-12.49-2.4-5.31-5.24-4.31-9.54,3.02-12.89ZM2355.09,993.64c1-8.3,4.88-11.58,11.63-9.83,5.6,3.5,6.32,8.45,2.15,14.86-1.58,6.41-1.94,13.11-1.08,20.1.29,5.97,2.94,9.4,7.97,10.27,12.92,0,21.54-2.62,25.85-7.87,2.3-3.2,3.73-6.99,4.31-11.36,1.43-4.66,2.51-5.1,3.23-1.31.14,3.79,1.72,7.29,4.74,10.49,7.61,3.93,8.11,9.4,1.51,16.39-1.58,6.56-6.25,10.49-14,11.8-12.64,3.5-23.55,4.08-32.74,1.75-12.49-6.85-18.02-19.45-16.58-37.81.43-5.83,1.43-11.65,3.02-17.48Z" style="fill: #000; stroke-width: 0px;"/>
    </g>
    <g>
      <path d="M1241.28,1101.44c.22,0,.52.06.9.19.38.12.65.19.81.19,1.36,0,2.78-.18,4.25-.53,1.47-.36,3.01-.53,4.63-.53.82,0,1.61.02,2.35.05.74.04,1.43.09,2.06.16,2.53.25,4.71.97,6.55,2.16,1.83,1.19,3.35,2.67,4.56,4.43,1.2,1.76,2.1,3.73,2.68,5.92.59,2.19.88,4.42.88,6.69,0,2.77-.37,5.32-1.12,7.65-.74,2.33-1.83,4.34-3.25,6.03-1.42,1.69-3.15,3-5.17,3.92-2.02.92-4.32,1.39-6.88,1.39-.44,0-1.01-.03-1.71-.08-.7-.05-1.43-.14-2.21-.27-.78-.12-1.54-.27-2.3-.43s-1.41-.35-1.95-.56c-.09.78-.36,1.34-.81,1.68-.44.34-1.12.51-2.04.51s-1.53-.11-1.85-.32c-.32-.21-.51-.57-.57-1.07-.16-.46-.3-.83-.43-1.09-.13-.27-.25-.51-.38-.72.13-.92.24-2.29.33-4.11.09-1.81.17-3.81.24-6,.06-2.19.11-4.43.14-6.72.03-2.29.05-4.4.05-6.32,0-1.35-.02-2.42-.07-3.2-.05-.78-.15-1.51-.31-2.19-.03-.43-.15-.78-.36-1.07-.21-.28-.31-.76-.31-1.44,0-.36.05-.75.14-1.17s.21-.84.33-1.25c.13-.41.27-.78.43-1.12.16-.34.28-.6.38-.77ZM1246.45,1133.49c.16,0,.34-.05.55-.16.21-.11.34-.16.4-.16.09,0,.19.03.28.08s.24.12.43.19c.73.21,1.57.4,2.52.56s1.8.24,2.56.24c1.36,0,2.79-.21,4.29-.64,1.5-.43,2.88-1.17,4.13-2.24,1.25-1.07,2.28-2.52,3.08-4.35.81-1.83,1.21-4.17,1.21-7.01,0-2.28-.28-4.29-.83-6.05-.55-1.76-1.34-3.24-2.35-4.45-1.01-1.21-2.22-2.12-3.63-2.72-1.41-.6-2.97-.91-4.67-.91-1.8,0-3.54.21-5.22.64-1.68.43-3.12.84-4.32,1.23.06.14.18.34.36.59.17.25.35.52.52.8.17.28.32.57.45.85.13.28.19.53.19.75,0,.46-.02,1.11-.05,1.95-.03.84-.06,1.75-.07,2.75-.02,1-.04,2.04-.07,3.12-.03,1.08-.05,2.11-.05,3.07l.28,11.89Z" style="fill: #000; stroke-width: 0px;"/>
      <path d="M1279.73,1106.19c-.13-.14-.3-.29-.52-.45-.22-.16-.44-.33-.66-.51-.22-.18-.4-.38-.55-.61-.14-.23-.18-.51-.12-.83.16-.25.29-.5.4-.75.11-.25.26-.48.45-.69s.45-.39.78-.53c.33-.14.78-.21,1.35-.21.25,0,.85,0,1.8-.03.95-.02,2.07-.03,3.37-.03,1.04,0,2.3-.03,3.77-.08,1.47-.05,2.96-.12,4.46-.19,1.5-.07,2.94-.14,4.32-.21,1.38-.07,2.51-.14,3.39-.21.13,0,.28.08.47.24s.39.36.59.59c.21.23.4.47.57.72.17.25.29.46.36.64.03.18.11.45.24.83.13.37.15.75.07,1.12-.08.37-.33.71-.76,1.01-.43.3-1.16.45-2.21.45-1.49,0-3.02,0-4.6.03-1.58.02-3.13.04-4.65.05-1.52.02-2.95.04-4.29.08-1.35.04-2.54.05-3.58.05.35.28.61.67.78,1.15.17.48.26.86.26,1.15,0,.6,0,1.49-.02,2.67-.02,1.17-.04,2.88-.07,5.12l.57-.05c.73-.07,1.61-.11,2.63-.11h6.24c1.01,0,1.88-.04,2.61-.11.25,0,.56-.02.93-.05.36-.04.74-.03,1.14.03.4.05.78.22,1.14.51.36.28.69.75.97,1.39.13.28.24.65.36,1.09.11.44.14.87.09,1.28-.05.41-.21.76-.5,1.04-.28.28-.78.41-1.47.37l-1.85-.16c-.44-.04-1.14-.07-2.09-.11-.95-.04-1.96-.07-3.04-.11-1.08-.04-2.13-.05-3.16-.05h-2.54c-.66.04-1.13-.12-1.4-.45-.27-.34-.47-.6-.59-.77-.03,1.24-.06,2.68-.07,4.32-.02,1.64-.02,3.22-.02,4.75,0,.6,0,1.19.02,1.76.02.57.02,1.08.02,1.55.76,0,1.89,0,3.39-.03,1.5-.02,3.07-.04,4.7-.05,1.63-.02,3.16-.04,4.6-.08,1.44-.04,2.48-.07,3.11-.11.47-.04.93,0,1.38.13.44.12.85.29,1.21.51.36.21.69.46.97.75.28.28.49.57.62.85.13.25.25.64.38,1.17.13.53.12,1.04-.02,1.52s-.48.86-1.02,1.15c-.54.28-1.41.32-2.61.11-.51-.11-1.22-.2-2.14-.29-.92-.09-1.9-.16-2.94-.21-1.04-.05-2.1-.1-3.18-.13-1.08-.04-2.02-.05-2.85-.05-.92,0-1.86.02-2.82.05-.97.04-1.72.05-2.25.05-.28,0-.54.03-.76.08-.22.05-.44.12-.64.19-.21.07-.42.13-.64.19-.22.05-.49.08-.81.08-.35,0-.73-.04-1.14-.11-.41-.07-.81-.2-1.19-.37-.38-.18-.7-.4-.95-.67-.25-.27-.38-.61-.38-1.04,0-.18,0-.36.02-.56.02-.2.05-.45.12-.77,0-.11.02-.65.07-1.63.05-.98.1-2.25.17-3.81.06-1.56.13-3.33.19-5.31.06-1.97.11-4.02.14-6.13.03-2.12.04-4.22.02-6.32-.02-2.1-.07-4.04-.17-5.81Z" style="fill: #000; stroke-width: 0px;"/>
      <path d="M1339.49,1103.89c.19.43.24.78.17,1.07-.08.28-.15.68-.21,1.17.41,0,1.03.52,1.85,1.55.66.85,1.25,1.8,1.76,2.85.51,1.05.94,2.14,1.31,3.28.36,1.14.63,2.28.81,3.44.17,1.16.26,2.27.26,3.33,0,2.45-.32,4.81-.95,7.07-.63,2.26-1.61,4.26-2.94,6-1.33,1.74-3.02,3.13-5.08,4.16-2.06,1.03-4.51,1.55-7.36,1.55-2.21,0-4.33-.36-6.34-1.07-2.01-.71-3.77-1.83-5.29-3.36-1.52-1.53-2.73-3.48-3.63-5.84-.9-2.36-1.35-5.18-1.35-8.45,0-2.88.4-5.56,1.21-8.03.81-2.47,1.94-4.61,3.39-6.43,1.45-1.81,3.18-3.24,5.17-4.27,1.99-1.03,4.18-1.55,6.55-1.55,1.2,0,2.4.12,3.58.37,1.19.25,2.28.55,3.27.91,1,.36,1.83.74,2.52,1.15.68.41,1.12.77,1.31,1.09ZM1337.59,1110.67c-.28-.46-.46-.86-.52-1.2-.06-.34-.03-.72.09-1.15-.06.04-.12.07-.17.11-.05.04-.12.05-.21.05-.25,0-.51-.02-.76-.05-.25-.04-.51-.2-.76-.48-.63-.5-1.49-1-2.59-1.49-1.09-.5-2.33-.75-3.73-.75-1.49,0-2.93.32-4.32.96-1.39.64-2.63,1.59-3.7,2.85-1.08,1.26-1.93,2.83-2.56,4.69-.63,1.87-.95,4.01-.95,6.43s.3,4.42.9,6.11c.6,1.69,1.42,3.08,2.47,4.16,1.04,1.08,2.25,1.88,3.63,2.37,1.38.5,2.84.75,4.39.75,2.21,0,4.07-.44,5.58-1.33,1.5-.89,2.71-2.03,3.61-3.41.9-1.39,1.54-2.92,1.92-4.61.38-1.69.57-3.35.57-4.99,0-.82-.1-1.67-.31-2.56-.21-.89-.46-1.74-.76-2.56-.3-.82-.62-1.57-.95-2.27s-.62-1.24-.88-1.63Z" style="fill: #000; stroke-width: 0px;"/>
      <path d="M1354.59,1100.91c.06-.21.36-.41.9-.59.54-.18,1.06-.28,1.57-.32.63,0,1.21.12,1.73.35.52.23.97.5,1.35.8.38.3.67.61.88.93.21.32.31.57.31.75,0,.14-.02.34-.05.59-.03.25-.07.51-.12.77s-.09.52-.14.77c-.05.25-.07.44-.07.59-.03,1.03-.06,2.21-.09,3.55-.03,1.33-.06,2.72-.07,4.16-.02,1.44-.03,2.89-.05,4.35-.02,1.46-.02,2.83-.02,4.11,0,.96,0,2.11.02,3.44.02,1.33.04,2.69.07,4.08.03,1.39.05,2.71.07,3.97.02,1.26.02,2.27.02,3.01s-.05,1.29-.14,1.73c-.09.44-.23.79-.4,1.04-.17.25-.37.41-.59.48-.22.07-.47.11-.76.11-.41,0-.85-.09-1.33-.27-.47-.18-.92-.43-1.33-.75-.41-.32-.76-.71-1.04-1.17-.28-.46-.43-.96-.43-1.49.13-1.17.24-3.72.33-7.65.09-3.93.14-9,.14-15.23,0-2.88-.09-5.33-.26-7.36-.17-2.03-.34-3.61-.5-4.75Z" style="fill: #000; stroke-width: 0px;"/>
      <path d="M1397.41,1101.49c0-.32.32-.54.97-.67.65-.12,1.32-.24,2.02-.35.73.14,1.38.29,1.97.45.59.16,1.14.39,1.66.69.52.3,1.03.71,1.52,1.23.49.52,1,1.22,1.54,2.11.63,1.07,1.48,2.46,2.54,4.19,1.06,1.72,2.21,3.56,3.44,5.52,1.23,1.96,2.48,3.92,3.75,5.89,1.27,1.97,2.4,3.72,3.39,5.25,1,1.53,1.79,2.76,2.37,3.68.58.92.83,1.3.73,1.12v-11.52c-.03-1.53-.06-3.11-.09-4.75-.03-1.64-.07-3.2-.12-4.69-.05-1.49-.11-2.84-.19-4.05-.08-1.21-.17-2.12-.26-2.72-.06-.32-.11-.56-.14-.72s-.09-.38-.19-.67c.06-.78.71-1.19,1.94-1.23.66.11,1.29.27,1.88.48.58.21,1.08.47,1.47.77.39.3.69.63.88.99.19.36.24.75.14,1.17l-.14,1.87c-.09,1.32-.18,3-.26,5.07-.08,2.06-.14,4.26-.19,6.59-.05,2.33-.08,4.67-.09,7.01-.02,2.35-.02,4.48-.02,6.4,0,.6.01,1.24.05,1.92.03.68.07,1.3.12,1.87.05.57.09,1.07.12,1.49s.05.71.05.85c0,1.64-.6,2.45-1.8,2.45-.38,0-.82-.05-1.33-.16s-1.04-.3-1.61-.59c-.76-.46-1.31-.83-1.66-1.09-.35-.27-.59-.51-.74-.72-.14-.21-.24-.43-.31-.64s-.19-.48-.38-.8c.09.14-.14-.24-.71-1.15-.57-.91-1.34-2.16-2.3-3.76-.97-1.6-2.06-3.41-3.3-5.44-1.23-2.03-2.49-4.08-3.77-6.16-1.28-2.08-2.52-4.06-3.73-5.95-1.2-1.88-2.25-3.48-3.13-4.8v4.05c.06,5.05.16,9.53.28,13.44.13,3.91.19,7.25.19,10.03,0,.78-.06,1.42-.17,1.92-.11.5-.25.88-.43,1.15-.17.27-.37.44-.59.53-.22.09-.44.13-.66.13-1.39,0-2.35-.27-2.87-.8s-.88-1.16-1.07-1.87l.14-1.71c.09-1.21.17-2.55.24-4.03.06-1.48.11-3.11.14-4.91.03-1.8.05-3.79.07-5.97.02-2.19.02-4.61.02-7.28v-2.83c0-.78-.02-1.48-.05-2.08-.03-.6-.06-1.16-.09-1.68-.03-.52-.08-1.04-.14-1.57-.47-.5-.77-1.02-.88-1.57-.11-.55-.18-1.02-.21-1.41Z" style="fill: #000; stroke-width: 0px;"/>
      <path d="M1453.66,1119.84c-.09-.75-.02-1.23.21-1.44.24-.21.51-.34.83-.37.38.14.81.24,1.28.29s.95.08,1.42.08h3.89c.95,0,1.82-.04,2.61-.11.32-.04.62-.12.92-.24.3-.12.56-.19.78-.19.19,0,.49.12.9.37.41.25.82.55,1.23.91.41.36.77.74,1.07,1.15.3.41.45.77.45,1.09,0,.75-.09,1.48-.28,2.21-.19.73-.28,1.31-.28,1.73,0,.53.02,1.32.05,2.35.03,1.03.05,2.09.07,3.17.02,1.08.04,2.1.07,3.04.03.94.05,1.59.05,1.95,0,.18-.03.41-.09.69s-.14.57-.24.85c-.09.28-.19.53-.28.75s-.19.34-.28.37c-.44.46-.84.71-1.19.75-.35.04-.78-.12-1.28-.48-.22-.21-.43-.43-.62-.64s-.36-.64-.52-1.28c-.44.21-.93.47-1.47.77-.54.3-1.19.6-1.97.88-.78.28-1.73.53-2.87.75-1.14.21-2.55.32-4.22.32-2.72,0-5.12-.56-7.19-1.68-2.07-1.12-3.81-2.59-5.22-4.4-1.41-1.81-2.48-3.86-3.2-6.13-.73-2.28-1.09-4.55-1.09-6.83,0-3.66.55-6.78,1.64-9.36,1.09-2.58,2.5-4.68,4.22-6.32,1.72-1.64,3.65-2.83,5.77-3.57,2.12-.75,4.21-1.12,6.26-1.12.79,0,1.58.05,2.37.16.79.11,1.61.28,2.47.53.85.25,1.76.59,2.73,1.01.96.43,2.05.94,3.25,1.55.09.04.25.05.47.05.16,0,.3,0,.43-.03.13-.02.24-.03.33-.03.44.39.66.8.66,1.23,0,.14-.04.35-.12.61s-.17.55-.28.85c-.11.3-.21.6-.31.88-.09.28-.17.52-.24.69-.44,1.14-.8,1.93-1.07,2.37-.27.44-.56.67-.88.67-.41,0-.84-.36-1.28-1.07-.38-.57-.89-1.09-1.54-1.57-.65-.48-1.38-.9-2.18-1.25-.81-.36-1.66-.63-2.56-.83-.9-.2-1.79-.29-2.68-.29-2.09,0-3.91.46-5.46,1.39-1.55.92-2.82,2.11-3.82,3.55-1,1.44-1.74,3.01-2.23,4.72-.49,1.71-.74,3.36-.74,4.96,0,1.17.16,2.55.47,4.13.32,1.58.93,3.1,1.83,4.56.9,1.46,2.16,2.69,3.77,3.71,1.61,1.01,3.72,1.52,6.31,1.52.57,0,1.39-.05,2.47-.16,1.08-.11,2.14-.36,3.2-.77,1.06-.41,1.99-1,2.78-1.76.79-.76,1.19-1.8,1.19-3.12,0-.96.02-1.94.05-2.93.03-1,.05-1.88.05-2.67-.28,0-.78.02-1.5.05-.71.04-1.49.07-2.32.11-.84.04-1.64.07-2.4.11-.76.04-1.31.07-1.66.11l-1,.16c-.16.04-.35.05-.57.05s-.46-.22-.71-.67c-.25-.44-.49-1.41-.71-2.91Z" style="fill: #000; stroke-width: 0px;"/>
      <path d="M1504.11,1103.89c.19.43.24.78.17,1.07-.08.28-.15.68-.21,1.17.41,0,1.03.52,1.85,1.55.66.85,1.25,1.8,1.76,2.85.51,1.05.94,2.14,1.31,3.28.36,1.14.63,2.28.81,3.44.17,1.16.26,2.27.26,3.33,0,2.45-.32,4.81-.95,7.07-.63,2.26-1.61,4.26-2.94,6-1.33,1.74-3.02,3.13-5.08,4.16-2.06,1.03-4.51,1.55-7.36,1.55-2.21,0-4.33-.36-6.34-1.07-2.01-.71-3.77-1.83-5.29-3.36-1.52-1.53-2.73-3.48-3.63-5.84-.9-2.36-1.35-5.18-1.35-8.45,0-2.88.4-5.56,1.21-8.03.81-2.47,1.94-4.61,3.39-6.43,1.46-1.81,3.18-3.24,5.17-4.27,1.99-1.03,4.18-1.55,6.55-1.55,1.2,0,2.4.12,3.58.37,1.19.25,2.28.55,3.27.91,1,.36,1.83.74,2.52,1.15.68.41,1.11.77,1.3,1.09ZM1502.22,1110.67c-.28-.46-.46-.86-.52-1.2-.06-.34-.03-.72.09-1.15-.06.04-.12.07-.17.11-.05.04-.12.05-.21.05-.25,0-.51-.02-.76-.05-.25-.04-.51-.2-.76-.48-.63-.5-1.5-1-2.59-1.49-1.09-.5-2.33-.75-3.73-.75-1.49,0-2.93.32-4.32.96s-2.63,1.59-3.7,2.85c-1.08,1.26-1.93,2.83-2.56,4.69-.63,1.87-.95,4.01-.95,6.43s.3,4.42.9,6.11c.6,1.69,1.42,3.08,2.47,4.16,1.04,1.08,2.25,1.88,3.63,2.37,1.38.5,2.84.75,4.39.75,2.21,0,4.07-.44,5.58-1.33,1.5-.89,2.7-2.03,3.61-3.41.9-1.39,1.54-2.92,1.92-4.61.38-1.69.57-3.35.57-4.99,0-.82-.1-1.67-.31-2.56-.21-.89-.46-1.74-.76-2.56-.3-.82-.62-1.57-.95-2.27-.33-.69-.63-1.24-.88-1.63Z" style="fill: #000; stroke-width: 0px;"/>
      <path d="M1518.08,1101.49c0-.32.32-.54.97-.67.65-.12,1.32-.24,2.02-.35.73.14,1.38.29,1.97.45.58.16,1.14.39,1.66.69.52.3,1.03.71,1.52,1.23.49.52,1.01,1.22,1.54,2.11.63,1.07,1.48,2.46,2.54,4.19,1.06,1.72,2.21,3.56,3.44,5.52,1.23,1.96,2.48,3.92,3.75,5.89,1.27,1.97,2.4,3.72,3.39,5.25,1,1.53,1.79,2.76,2.37,3.68.58.92.83,1.3.74,1.12v-11.52c-.03-1.53-.06-3.11-.09-4.75-.03-1.64-.07-3.2-.12-4.69-.05-1.49-.11-2.84-.19-4.05-.08-1.21-.17-2.12-.26-2.72l-.14-.72c-.03-.16-.09-.38-.19-.67.06-.78.71-1.19,1.95-1.23.66.11,1.29.27,1.87.48s1.08.47,1.47.77c.39.3.69.63.88.99.19.36.24.75.14,1.17l-.14,1.87c-.09,1.32-.18,3-.26,5.07-.08,2.06-.14,4.26-.19,6.59-.05,2.33-.08,4.67-.09,7.01s-.02,4.48-.02,6.4c0,.6.02,1.24.05,1.92.03.68.07,1.3.12,1.87.05.57.09,1.07.12,1.49s.05.71.05.85c0,1.64-.6,2.45-1.8,2.45-.38,0-.82-.05-1.33-.16s-1.04-.3-1.61-.59c-.76-.46-1.31-.83-1.66-1.09-.35-.27-.59-.51-.74-.72-.14-.21-.24-.43-.31-.64s-.19-.48-.38-.8c.09.14-.14-.24-.71-1.15s-1.34-2.16-2.3-3.76-2.06-3.41-3.3-5.44-2.49-4.08-3.77-6.16c-1.28-2.08-2.52-4.06-3.73-5.95-1.2-1.88-2.25-3.48-3.13-4.8v4.05c.06,5.05.16,9.53.28,13.44.13,3.91.19,7.25.19,10.03,0,.78-.06,1.42-.17,1.92-.11.5-.25.88-.43,1.15s-.37.44-.59.53c-.22.09-.44.13-.66.13-1.39,0-2.35-.27-2.87-.8-.52-.53-.88-1.16-1.07-1.87l.14-1.71c.09-1.21.17-2.55.24-4.03.06-1.48.11-3.11.14-4.91.03-1.8.05-3.79.07-5.97.01-2.19.02-4.61.02-7.28v-2.83c0-.78-.02-1.48-.05-2.08-.03-.6-.06-1.16-.09-1.68-.03-.52-.08-1.04-.14-1.57-.47-.5-.77-1.02-.88-1.57-.11-.55-.18-1.02-.21-1.41Z" style="fill: #000; stroke-width: 0px;"/>
      <path d="M1586.05,1100.91c.06-.21.36-.41.9-.59.54-.18,1.06-.28,1.57-.32.63,0,1.21.12,1.73.35.52.23.97.5,1.35.8.38.3.67.61.88.93s.31.57.31.75c0,.14-.02.34-.05.59-.03.25-.07.51-.12.77-.05.27-.09.52-.14.77-.05.25-.07.44-.07.59-.03,1.03-.06,2.21-.09,3.55-.03,1.33-.06,2.72-.07,4.16-.02,1.44-.03,2.89-.05,4.35-.02,1.46-.02,2.83-.02,4.11,0,.96,0,2.11.02,3.44s.04,2.69.07,4.08.05,2.71.07,3.97c.01,1.26.02,2.27.02,3.01s-.05,1.29-.14,1.73c-.09.44-.23.79-.4,1.04-.17.25-.37.41-.59.48-.22.07-.47.11-.76.11-.41,0-.85-.09-1.33-.27-.47-.18-.92-.43-1.33-.75s-.76-.71-1.04-1.17c-.28-.46-.43-.96-.43-1.49.13-1.17.24-3.72.33-7.65.09-3.93.14-9,.14-15.23,0-2.88-.09-5.33-.26-7.36-.18-2.03-.34-3.61-.5-4.75Z" style="fill: #000; stroke-width: 0px;"/>
      <path d="M1602.15,1101.49c0-.32.32-.54.97-.67.65-.12,1.32-.24,2.02-.35.73.14,1.38.29,1.97.45.58.16,1.14.39,1.66.69.52.3,1.03.71,1.52,1.23.49.52,1.01,1.22,1.54,2.11.63,1.07,1.48,2.46,2.54,4.19,1.06,1.72,2.21,3.56,3.44,5.52,1.23,1.96,2.48,3.92,3.75,5.89s2.4,3.72,3.39,5.25c1,1.53,1.79,2.76,2.37,3.68.58.92.83,1.3.74,1.12v-11.52c-.03-1.53-.06-3.11-.09-4.75-.03-1.64-.07-3.2-.12-4.69-.05-1.49-.11-2.84-.19-4.05-.08-1.21-.17-2.12-.26-2.72l-.14-.72c-.03-.16-.09-.38-.19-.67.06-.78.71-1.19,1.95-1.23.66.11,1.29.27,1.87.48s1.08.47,1.47.77c.39.3.69.63.88.99.19.36.24.75.14,1.17l-.14,1.87c-.09,1.32-.18,3-.26,5.07-.08,2.06-.14,4.26-.19,6.59-.05,2.33-.08,4.67-.09,7.01s-.02,4.48-.02,6.4c0,.6.02,1.24.05,1.92.03.68.07,1.3.12,1.87.05.57.09,1.07.12,1.49s.05.71.05.85c0,1.64-.6,2.45-1.8,2.45-.38,0-.82-.05-1.33-.16s-1.04-.3-1.61-.59c-.76-.46-1.31-.83-1.66-1.09-.35-.27-.59-.51-.74-.72-.14-.21-.24-.43-.31-.64s-.19-.48-.38-.8c.09.14-.14-.24-.71-1.15-.57-.91-1.34-2.16-2.3-3.76s-2.06-3.41-3.3-5.44c-1.23-2.03-2.49-4.08-3.77-6.16-1.28-2.08-2.52-4.06-3.73-5.95-1.2-1.88-2.25-3.48-3.13-4.8v4.05c.06,5.05.16,9.53.28,13.44.13,3.91.19,7.25.19,10.03,0,.78-.06,1.42-.17,1.92-.11.5-.25.88-.43,1.15s-.37.44-.59.53c-.22.09-.44.13-.66.13-1.39,0-2.35-.27-2.87-.8-.52-.53-.88-1.16-1.07-1.87l.14-1.71c.09-1.21.17-2.55.24-4.03.06-1.48.11-3.11.14-4.91.03-1.8.05-3.79.07-5.97.01-2.19.02-4.61.02-7.28v-2.83c0-.78-.02-1.48-.05-2.08-.03-.6-.06-1.16-.09-1.68-.03-.52-.08-1.04-.14-1.57-.47-.5-.77-1.02-.88-1.57-.11-.55-.18-1.02-.21-1.41Z" style="fill: #000; stroke-width: 0px;"/>
      <path d="M1669.07,1104.96c.44,0,.62.3.52.91-.09.28-.28.75-.55,1.39-.27.64-.57,1.31-.9,2-.33.69-.67,1.3-1.02,1.81-.35.52-.63.77-.85.77-.25,0-.47-.11-.66-.32s-.41-.62-.66-1.23c-.41-.82-.94-1.56-1.59-2.21-.65-.66-1.37-1.21-2.16-1.65-.79-.44-1.63-.78-2.52-1.01-.89-.23-1.76-.35-2.61-.35-.92,0-1.82.1-2.71.29-.89.2-1.68.51-2.37.93-.7.43-1.26.98-1.68,1.65-.43.68-.64,1.48-.64,2.4s.15,1.65.45,2.29c.3.64.82,1.2,1.57,1.68.74.48,1.72.92,2.94,1.31,1.22.39,2.75.76,4.58,1.12,1.9.39,3.61.84,5.15,1.33,1.53.5,2.85,1.16,3.96,1.97,1.11.82,1.96,1.85,2.56,3.09.6,1.24.9,2.83.9,4.75,0,2.24-.4,4.09-1.19,5.55-.79,1.46-1.85,2.63-3.18,3.52s-2.86,1.51-4.58,1.87c-1.73.36-3.54.53-5.43.53-.85,0-1.86-.07-3.01-.21-1.16-.14-2.32-.37-3.49-.69-1.17-.32-2.27-.74-3.3-1.25-1.03-.52-1.84-1.15-2.44-1.89-.35-.39-.66-.9-.92-1.52-.27-.62-.5-1.29-.69-2-.19-.71-.34-1.43-.45-2.16-.11-.73-.17-1.41-.17-2.05,0-.32.05-.6.14-.85.09-.25.28-.37.57-.37.16,0,.36.12.62.35.25.23.49.49.71.77.57.6,1.26,1.28,2.06,2.03.81.75,1.73,1.45,2.78,2.11,1.04.66,2.21,1.22,3.49,1.68,1.28.46,2.68.69,4.2.69,2.82,0,4.95-.56,6.41-1.68,1.46-1.12,2.18-2.64,2.18-4.56,0-.85-.14-1.56-.43-2.13-.28-.57-.8-1.08-1.54-1.52-.74-.44-1.77-.87-3.08-1.28-1.31-.41-3-.88-5.05-1.41-1.61-.39-3.14-.82-4.58-1.28-1.44-.46-2.69-1.08-3.75-1.87-1.06-.78-1.9-1.79-2.52-3.01-.62-1.23-.92-2.8-.92-4.72.03-1.67.39-3.14,1.07-4.4.68-1.26,1.6-2.32,2.75-3.17,1.15-.85,2.5-1.5,4.03-1.95,1.53-.44,3.17-.67,4.91-.67,2.31,0,4.26.31,5.84.93,1.58.62,3.07,1.4,4.46,2.32.35.28.79.61,1.33.99s1.03.51,1.47.4Z" style="fill: #000; stroke-width: 0px;"/>
      <path d="M1691.62,1106.56c-2.69.04-4.9.15-6.64.35-1.74.2-3.18.4-4.32.61-.44.07-.85-.27-1.23-1.01-.38-.75-.74-1.56-1.09-2.45-.44-1.17-.4-1.88.14-2.11.54-.23,1.58-.33,3.13-.29.6,0,1.5,0,2.71.03,1.2.02,2.58.04,4.13.05,1.55.02,3.21.02,4.98,0,1.77-.02,3.53-.05,5.27-.11,1.74-.05,3.39-.12,4.96-.21,1.57-.09,2.93-.22,4.1-.4.25-.11.56-.05.93.16.36.21.72.51,1.07.88s.65.78.9,1.23c.25.44.38.84.38,1.2.09.39.09.78-.02,1.17-.11.39-.35.72-.71.99-.36.27-.85.46-1.47.59-.62.12-1.4.12-2.35-.03-1.74-.18-3.43-.31-5.05-.4-1.63-.09-3.46-.17-5.48-.24.16.46.4,1.04.71,1.73s.47,1.32.47,1.89c0,.25-.05.91-.14,1.97-.09,1.07-.14,2.38-.14,3.95,0,1.71.02,3.43.05,5.17.03,1.74.07,3.42.12,5.04.05,1.62.09,3.15.12,4.59.03,1.44.05,2.73.05,3.87,0,.92-.04,1.68-.12,2.27s-.18,1.04-.31,1.36-.27.54-.43.67c-.16.12-.33.19-.52.19-.38,0-.81-.05-1.28-.16s-.94-.28-1.4-.51c-.46-.23-.86-.52-1.21-.85-.35-.34-.59-.74-.71-1.2.13-1.1.24-2.46.33-4.08.09-1.62.18-3.45.26-5.49.08-2.04.14-4.25.19-6.61.05-2.36.07-4.84.07-7.44,0-1.24-.03-2.45-.09-3.63s-.17-2.08-.33-2.72Z" style="fill: #000; stroke-width: 0px;"/>
      <path d="M1719.54,1100.91c.06-.21.36-.41.9-.59.54-.18,1.06-.28,1.57-.32.63,0,1.21.12,1.73.35.52.23.97.5,1.35.8.38.3.67.61.88.93s.31.57.31.75c0,.14-.02.34-.05.59-.03.25-.07.51-.12.77-.05.27-.09.52-.14.77-.05.25-.07.44-.07.59-.03,1.03-.06,2.21-.09,3.55-.03,1.33-.06,2.72-.07,4.16-.02,1.44-.03,2.89-.05,4.35-.02,1.46-.02,2.83-.02,4.11,0,.96,0,2.11.02,3.44s.04,2.69.07,4.08c.03,1.39.05,2.71.07,3.97.01,1.26.02,2.27.02,3.01s-.05,1.29-.14,1.73c-.09.44-.23.79-.4,1.04-.17.25-.37.41-.59.48-.22.07-.47.11-.76.11-.41,0-.85-.09-1.33-.27-.47-.18-.92-.43-1.33-.75s-.76-.71-1.04-1.17c-.28-.46-.43-.96-.43-1.49.13-1.17.24-3.72.33-7.65.09-3.93.14-9,.14-15.23,0-2.88-.09-5.33-.26-7.36-.18-2.03-.34-3.61-.5-4.75Z" style="fill: #000; stroke-width: 0px;"/>
      <path d="M1748.4,1106.56c-2.69.04-4.9.15-6.64.35-1.74.2-3.18.4-4.32.61-.44.07-.85-.27-1.23-1.01-.38-.75-.74-1.56-1.09-2.45-.44-1.17-.4-1.88.14-2.11.54-.23,1.58-.33,3.13-.29.6,0,1.5,0,2.71.03,1.2.02,2.58.04,4.13.05,1.55.02,3.21.02,4.98,0,1.77-.02,3.53-.05,5.27-.11,1.74-.05,3.39-.12,4.96-.21,1.57-.09,2.93-.22,4.1-.4.25-.11.56-.05.93.16.36.21.72.51,1.07.88s.65.78.9,1.23c.25.44.38.84.38,1.2.09.39.09.78-.02,1.17-.11.39-.35.72-.71.99-.36.27-.85.46-1.47.59-.62.12-1.4.12-2.35-.03-1.74-.18-3.43-.31-5.05-.4-1.63-.09-3.46-.17-5.48-.24.16.46.4,1.04.71,1.73s.47,1.32.47,1.89c0,.25-.05.91-.14,1.97s-.14,2.38-.14,3.95c0,1.71.02,3.43.05,5.17.03,1.74.07,3.42.12,5.04.05,1.62.09,3.15.12,4.59.03,1.44.05,2.73.05,3.87,0,.92-.04,1.68-.12,2.27s-.18,1.04-.31,1.36-.27.54-.43.67c-.16.12-.33.19-.52.19-.38,0-.81-.05-1.28-.16s-.94-.28-1.4-.51c-.46-.23-.86-.52-1.21-.85-.35-.34-.59-.74-.71-1.2.13-1.1.24-2.46.33-4.08.09-1.62.18-3.45.26-5.49.08-2.04.14-4.25.19-6.61.05-2.36.07-4.84.07-7.44,0-1.24-.03-2.45-.09-3.63s-.17-2.08-.33-2.72Z" style="fill: #000; stroke-width: 0px;"/>
      <path d="M1776.17,1104.85c-.03-.25-.09-.52-.19-.8-.09-.28-.18-.57-.26-.85-.08-.28-.13-.56-.17-.83s.02-.54.14-.83c.22-.53.68-.81,1.38-.83.7-.02,1.42.1,2.18.35.76.25,1.44.57,2.04.96.6.39.9.75.9,1.07,0-.14-.02.06-.05.61-.03.55-.07,1.33-.12,2.35-.05,1.01-.09,2.19-.14,3.52-.05,1.33-.09,2.73-.14,4.19-.05,1.46-.09,2.91-.12,4.35-.03,1.44-.05,2.75-.05,3.92,0,1.53.1,3,.31,4.4.21,1.4.64,2.64,1.31,3.71s1.62,1.92,2.87,2.56c1.25.64,2.92.96,5.01.96s3.86-.32,5.13-.96c1.27-.64,2.21-1.72,2.85-3.23.63-1.51,1.02-3.51,1.16-6,.14-2.49.15-5.58.02-9.28-.06-1.67-.1-3.46-.12-5.36-.02-1.9-.1-3.65-.26-5.25-.06-.46-.16-.84-.28-1.12-.13-.28-.22-.59-.28-.91.19-.57.65-.89,1.38-.96.73-.07,1.49.02,2.28.27.79.25,1.5.6,2.14,1.07.63.46.95.94.95,1.44,0,.18-.05.35-.14.51s-.17.47-.24.93c0,.18,0,.61-.02,1.31s-.04,1.53-.07,2.51c-.03.98-.07,2.06-.12,3.25-.05,1.19-.09,2.42-.12,3.68-.03,1.26-.06,2.49-.07,3.68-.02,1.19-.02,2.28-.02,3.28,0,3.06-.29,5.65-.88,7.79-.59,2.13-1.47,3.88-2.66,5.23-1.19,1.35-2.67,2.34-4.44,2.96-1.77.62-3.84.93-6.22.93-2.59,0-4.81-.35-6.64-1.04-1.83-.69-3.34-1.75-4.51-3.17-1.17-1.42-2.03-3.19-2.59-5.31-.55-2.12-.83-4.61-.83-7.49,0-2.28,0-4.27-.02-5.97-.02-1.71-.03-3.24-.05-4.59-.02-1.35-.04-2.59-.07-3.71-.03-1.12-.08-2.21-.14-3.28Z" style="fill: #000; stroke-width: 0px;"/>
      <path d="M1827.58,1106.56c-2.69.04-4.9.15-6.64.35-1.74.2-3.18.4-4.32.61-.44.07-.85-.27-1.23-1.01-.38-.75-.74-1.56-1.09-2.45-.44-1.17-.4-1.88.14-2.11.54-.23,1.58-.33,3.13-.29.6,0,1.5,0,2.71.03,1.2.02,2.58.04,4.13.05,1.55.02,3.21.02,4.98,0,1.77-.02,3.53-.05,5.27-.11,1.74-.05,3.39-.12,4.96-.21,1.57-.09,2.93-.22,4.1-.4.25-.11.56-.05.93.16.36.21.72.51,1.07.88s.65.78.9,1.23c.25.44.38.84.38,1.2.09.39.09.78-.02,1.17-.11.39-.35.72-.71.99-.36.27-.85.46-1.47.59-.62.12-1.4.12-2.35-.03-1.74-.18-3.43-.31-5.05-.4-1.63-.09-3.46-.17-5.48-.24.16.46.4,1.04.71,1.73.32.69.47,1.32.47,1.89,0,.25-.05.91-.14,1.97-.09,1.07-.14,2.38-.14,3.95,0,1.71.02,3.43.05,5.17.03,1.74.07,3.42.12,5.04.05,1.62.09,3.15.12,4.59.03,1.44.05,2.73.05,3.87,0,.92-.04,1.68-.12,2.27s-.18,1.04-.31,1.36-.27.54-.43.67c-.16.12-.33.19-.52.19-.38,0-.81-.05-1.28-.16s-.94-.28-1.4-.51c-.46-.23-.86-.52-1.21-.85-.35-.34-.59-.74-.71-1.2.13-1.1.24-2.46.33-4.08.09-1.62.18-3.45.26-5.49.08-2.04.14-4.25.19-6.61.05-2.36.07-4.84.07-7.44,0-1.24-.03-2.45-.09-3.63s-.17-2.08-.33-2.72Z" style="fill: #000; stroke-width: 0px;"/>
      <path d="M1855.44,1106.19c-.13-.14-.3-.29-.52-.45s-.44-.33-.66-.51c-.22-.18-.4-.38-.55-.61-.14-.23-.18-.51-.12-.83.16-.25.29-.5.4-.75.11-.25.26-.48.45-.69s.45-.39.78-.53c.33-.14.78-.21,1.35-.21.25,0,.85,0,1.8-.03.95-.02,2.07-.03,3.37-.03,1.04,0,2.3-.03,3.77-.08,1.47-.05,2.96-.12,4.46-.19,1.5-.07,2.94-.14,4.32-.21,1.38-.07,2.51-.14,3.39-.21.13,0,.28.08.47.24s.39.36.59.59c.2.23.39.47.57.72.17.25.29.46.36.64.03.18.11.45.24.83s.15.75.07,1.12c-.08.37-.33.71-.76,1.01-.43.3-1.16.45-2.21.45-1.49,0-3.02,0-4.6.03-1.58.02-3.13.04-4.65.05-1.52.02-2.95.04-4.29.08-1.35.04-2.54.05-3.58.05.35.28.61.67.78,1.15s.26.86.26,1.15c0,.6,0,1.49-.02,2.67-.02,1.17-.04,2.88-.07,5.12l.57-.05c.73-.07,1.61-.11,2.63-.11h6.24c1.01,0,1.88-.04,2.61-.11.25,0,.56-.02.93-.05.36-.04.74-.03,1.14.03.39.05.77.22,1.14.51.36.28.69.75.97,1.39.13.28.24.65.36,1.09.11.44.14.87.09,1.28-.05.41-.21.76-.5,1.04-.28.28-.78.41-1.47.37l-1.85-.16c-.44-.04-1.14-.07-2.09-.11-.95-.04-1.96-.07-3.04-.11-1.08-.04-2.13-.05-3.16-.05h-2.54c-.66.04-1.13-.12-1.4-.45-.27-.34-.47-.6-.59-.77-.03,1.24-.06,2.68-.07,4.32-.02,1.64-.02,3.22-.02,4.75,0,.6,0,1.19.02,1.76.01.57.02,1.08.02,1.55.76,0,1.89,0,3.39-.03,1.5-.02,3.07-.04,4.7-.05,1.63-.02,3.16-.04,4.6-.08,1.44-.04,2.48-.07,3.11-.11.47-.04.93,0,1.38.13.44.12.85.29,1.21.51.36.21.69.46.97.75.28.28.49.57.62.85.13.25.25.64.38,1.17s.12,1.04-.02,1.52c-.14.48-.48.86-1.02,1.15-.54.28-1.41.32-2.61.11-.51-.11-1.22-.2-2.14-.29-.92-.09-1.9-.16-2.94-.21-1.04-.05-2.1-.1-3.18-.13-1.08-.04-2.02-.05-2.85-.05-.92,0-1.86.02-2.82.05-.96.04-1.72.05-2.25.05-.28,0-.54.03-.76.08s-.44.12-.64.19c-.21.07-.42.13-.64.19s-.49.08-.81.08c-.35,0-.73-.04-1.14-.11-.41-.07-.81-.2-1.19-.37-.38-.18-.7-.4-.95-.67s-.38-.61-.38-1.04c0-.18,0-.36.02-.56.02-.2.06-.45.12-.77,0-.11.02-.65.07-1.63.05-.98.1-2.25.17-3.81.06-1.56.13-3.33.19-5.31.06-1.97.11-4.02.14-6.13.03-2.12.04-4.22.02-6.32-.02-2.1-.07-4.04-.17-5.81Z" style="fill: #000; stroke-width: 0px;"/>
      <path d="M1941.93,1103.89c.19.43.24.78.17,1.07-.08.28-.15.68-.21,1.17.41,0,1.03.52,1.85,1.55.66.85,1.25,1.8,1.76,2.85.51,1.05.94,2.14,1.31,3.28.36,1.14.63,2.28.81,3.44.17,1.16.26,2.27.26,3.33,0,2.45-.32,4.81-.95,7.07-.63,2.26-1.61,4.26-2.94,6-1.33,1.74-3.02,3.13-5.08,4.16-2.06,1.03-4.51,1.55-7.36,1.55-2.21,0-4.33-.36-6.34-1.07-2.01-.71-3.77-1.83-5.29-3.36-1.52-1.53-2.73-3.48-3.63-5.84-.9-2.36-1.35-5.18-1.35-8.45,0-2.88.4-5.56,1.21-8.03.81-2.47,1.94-4.61,3.39-6.43,1.46-1.81,3.18-3.24,5.17-4.27,1.99-1.03,4.18-1.55,6.55-1.55,1.2,0,2.4.12,3.58.37,1.19.25,2.28.55,3.27.91,1,.36,1.83.74,2.52,1.15.68.41,1.11.77,1.3,1.09ZM1940.03,1110.67c-.28-.46-.46-.86-.52-1.2-.06-.34-.03-.72.09-1.15-.06.04-.12.07-.17.11-.05.04-.12.05-.21.05-.25,0-.51-.02-.76-.05-.25-.04-.51-.2-.76-.48-.63-.5-1.5-1-2.59-1.49-1.09-.5-2.33-.75-3.73-.75-1.49,0-2.93.32-4.32.96s-2.63,1.59-3.7,2.85c-1.08,1.26-1.93,2.83-2.56,4.69s-.95,4.01-.95,6.43.3,4.42.9,6.11c.6,1.69,1.42,3.08,2.47,4.16,1.04,1.08,2.25,1.88,3.63,2.37,1.38.5,2.84.75,4.39.75,2.21,0,4.07-.44,5.58-1.33,1.5-.89,2.7-2.03,3.61-3.41.9-1.39,1.54-2.92,1.92-4.61.38-1.69.57-3.35.57-4.99,0-.82-.1-1.67-.31-2.56-.21-.89-.46-1.74-.76-2.56-.3-.82-.62-1.57-.95-2.27-.33-.69-.63-1.24-.88-1.63Z" style="fill: #000; stroke-width: 0px;"/>
      <path d="M1962.68,1125.12c0,.75.02,1.64.05,2.69.03,1.05.06,2.1.09,3.15.03,1.05.06,2.01.09,2.88.03.87.05,1.52.05,1.95,0,.36-.02.76-.07,1.2-.05.44-.13.87-.26,1.28-.13.41-.32.75-.59,1.01s-.61.4-1.02.4c-.44,0-.92-.06-1.42-.19-.51-.12-.97-.34-1.4-.64-.43-.3-.78-.68-1.04-1.15-.27-.46-.39-1.05-.36-1.76.06-.64.12-1.58.17-2.83.05-1.24.1-2.64.17-4.19.06-1.55.12-3.2.17-4.96.05-1.76.09-3.48.14-5.15.05-1.67.08-3.24.09-4.72.01-1.48.02-2.71.02-3.71s-.04-1.84-.12-2.43c-.08-.59-.2-1.13-.36-1.63-.06-.21-.15-.36-.26-.45-.11-.09-.23-.17-.36-.24-.13-.07-.24-.14-.33-.21-.09-.07-.14-.21-.14-.43,0-.32.07-.69.21-1.12.14-.43.32-.83.52-1.2s.41-.7.62-.99c.2-.28.39-.46.55-.53.16,0,.31.02.45.05.14.04.37.07.69.11.32.04.75.07,1.3.11.55.04,1.34.05,2.35.05h3.7c1.33,0,2.67-.02,4.03-.05,1.36-.04,2.68-.07,3.96-.11,1.28-.04,2.46-.09,3.54-.16.76-.04,1.39-.08,1.9-.13.51-.05.93-.08,1.28-.08.16,0,.36.05.59.16.24.11.48.25.74.43.25.18.48.38.69.61.21.23.36.47.45.72.85,1.35.93,2.44.21,3.25-.71.82-2.25,1.12-4.63.91-2.94-.11-5.86-.15-8.76-.13-2.89.02-5.84,0-8.85-.08.06.11.17.28.31.51.14.23.29.47.45.72.16.25.3.5.43.75.13.25.19.46.19.64,0,.07-.02.2-.07.4-.05.2-.07.33-.07.4-.06.82-.09,1.8-.09,2.96v4.83c.16,0,.29-.03.4-.08s.25-.11.4-.16.37-.11.64-.16.64-.08,1.12-.08c1.14-.04,2.33-.05,3.56-.05s2.4,0,3.51-.03c1.11-.02,2.11-.04,3.01-.08.9-.04,1.57-.11,2.02-.21.79-.18,1.47,0,2.04.53s1,1.16,1.31,1.87c.3.71.49,1.4.57,2.05.08.66.02,1.04-.17,1.15-.09.18-.25.3-.47.37-.22.07-.46.12-.71.13-.25.02-.5,0-.74-.03-.24-.04-.42-.05-.55-.05-.51-.04-1.14-.08-1.9-.13s-1.59-.1-2.49-.13c-.9-.04-1.83-.06-2.78-.08-.95-.02-1.86-.04-2.73-.05-.87-.02-1.66-.03-2.37-.03s-1.27.02-1.69.05c-.73.07-1.19-.02-1.4-.27-.21-.25-.4-.55-.59-.91v3.47Z" style="fill: #000; stroke-width: 0px;"/>
      <path d="M2029.99,1106.56c-2.69.04-4.9.15-6.64.35-1.74.2-3.18.4-4.32.61-.44.07-.85-.27-1.23-1.01-.38-.75-.74-1.56-1.09-2.45-.44-1.17-.4-1.88.14-2.11.54-.23,1.58-.33,3.13-.29.6,0,1.5,0,2.71.03,1.2.02,2.58.04,4.13.05,1.55.02,3.21.02,4.98,0,1.77-.02,3.53-.05,5.27-.11,1.74-.05,3.39-.12,4.96-.21,1.57-.09,2.93-.22,4.1-.4.25-.11.56-.05.93.16.36.21.72.51,1.07.88s.65.78.9,1.23c.25.44.38.84.38,1.2.09.39.09.78-.02,1.17-.11.39-.35.72-.71.99-.36.27-.85.46-1.47.59-.62.12-1.4.12-2.35-.03-1.74-.18-3.43-.31-5.05-.4-1.63-.09-3.46-.17-5.48-.24.16.46.4,1.04.71,1.73s.47,1.32.47,1.89c0,.25-.05.91-.14,1.97-.09,1.07-.14,2.38-.14,3.95,0,1.71.02,3.43.05,5.17.03,1.74.07,3.42.12,5.04.05,1.62.09,3.15.12,4.59.03,1.44.05,2.73.05,3.87,0,.92-.04,1.68-.12,2.27s-.18,1.04-.31,1.36-.27.54-.43.67c-.16.12-.33.19-.52.19-.38,0-.81-.05-1.28-.16s-.94-.28-1.4-.51c-.46-.23-.86-.52-1.21-.85-.35-.34-.59-.74-.71-1.2.13-1.1.24-2.46.33-4.08.09-1.62.18-3.45.26-5.49.08-2.04.14-4.25.19-6.61.05-2.36.07-4.84.07-7.44,0-1.24-.03-2.45-.09-3.63s-.17-2.08-.33-2.72Z" style="fill: #000; stroke-width: 0px;"/>
      <path d="M2057.86,1106.19c-.13-.14-.3-.29-.52-.45s-.44-.33-.66-.51c-.22-.18-.4-.38-.55-.61-.14-.23-.18-.51-.12-.83.16-.25.29-.5.4-.75.11-.25.26-.48.45-.69s.45-.39.78-.53c.33-.14.78-.21,1.35-.21.25,0,.85,0,1.8-.03.95-.02,2.07-.03,3.37-.03,1.04,0,2.3-.03,3.77-.08,1.47-.05,2.96-.12,4.46-.19,1.5-.07,2.94-.14,4.32-.21,1.38-.07,2.51-.14,3.39-.21.13,0,.28.08.47.24s.39.36.59.59c.2.23.39.47.57.72.17.25.29.46.36.64.03.18.11.45.24.83s.15.75.07,1.12c-.08.37-.33.71-.76,1.01-.43.3-1.16.45-2.21.45-1.49,0-3.02,0-4.6.03-1.58.02-3.13.04-4.65.05-1.52.02-2.95.04-4.29.08-1.35.04-2.54.05-3.58.05.35.28.61.67.78,1.15s.26.86.26,1.15c0,.6,0,1.49-.02,2.67-.02,1.17-.04,2.88-.07,5.12l.57-.05c.73-.07,1.61-.11,2.63-.11h6.24c1.01,0,1.88-.04,2.61-.11.25,0,.56-.02.93-.05.36-.04.74-.03,1.14.03.39.05.77.22,1.14.51.36.28.69.75.97,1.39.13.28.24.65.36,1.09.11.44.14.87.09,1.28-.05.41-.21.76-.5,1.04-.28.28-.78.41-1.47.37l-1.85-.16c-.44-.04-1.14-.07-2.09-.11-.95-.04-1.96-.07-3.04-.11-1.08-.04-2.13-.05-3.16-.05h-2.54c-.66.04-1.13-.12-1.4-.45-.27-.34-.47-.6-.59-.77-.03,1.24-.06,2.68-.07,4.32-.02,1.64-.02,3.22-.02,4.75,0,.6,0,1.19.02,1.76.01.57.02,1.08.02,1.55.76,0,1.89,0,3.39-.03,1.5-.02,3.07-.04,4.7-.05,1.63-.02,3.16-.04,4.6-.08,1.44-.04,2.48-.07,3.11-.11.47-.04.93,0,1.38.13.44.12.85.29,1.21.51.36.21.69.46.97.75.28.28.49.57.62.85.13.25.25.64.38,1.17s.12,1.04-.02,1.52c-.14.48-.48.86-1.02,1.15-.54.28-1.41.32-2.61.11-.51-.11-1.22-.2-2.14-.29-.92-.09-1.9-.16-2.94-.21-1.04-.05-2.1-.1-3.18-.13-1.08-.04-2.02-.05-2.85-.05-.92,0-1.86.02-2.82.05-.96.04-1.72.05-2.25.05-.28,0-.54.03-.76.08s-.44.12-.64.19c-.21.07-.42.13-.64.19s-.49.08-.81.08c-.35,0-.73-.04-1.14-.11-.41-.07-.81-.2-1.19-.37-.38-.18-.7-.4-.95-.67s-.38-.61-.38-1.04c0-.18,0-.36.02-.56.02-.2.06-.45.12-.77,0-.11.02-.65.07-1.63.05-.98.1-2.25.17-3.81.06-1.56.13-3.33.19-5.31s.11-4.02.14-6.13c.03-2.12.04-4.22.02-6.32-.02-2.1-.07-4.04-.17-5.81Z" style="fill: #000; stroke-width: 0px;"/>
      <path d="M2121.03,1105.28c.32,0,.59.13.81.4s.35.61.38,1.04c-.25.68-.51,1.35-.78,2.03-.27.68-.54,1.29-.81,1.84-.27.55-.52,1-.76,1.36-.24.36-.45.53-.64.53-.13,0-.33-.04-.62-.11-.28-.07-.51-.3-.66-.69-.57-1.14-1.27-2.07-2.11-2.8-.84-.73-1.71-1.31-2.61-1.73-.9-.43-1.8-.72-2.7-.88-.9-.16-1.7-.24-2.4-.24-1.3,0-2.66.23-4.08.69-1.42.46-2.74,1.23-3.94,2.29-1.2,1.07-2.2,2.46-2.99,4.19-.79,1.72-1.19,3.83-1.19,6.32s.39,4.81,1.16,6.64c.78,1.83,1.78,3.33,3.01,4.51s2.63,2.03,4.18,2.56,3.12.8,4.7.8c1.83,0,3.46-.33,4.86-.99,1.41-.66,2.62-1.41,3.63-2.27s1.83-1.69,2.44-2.51c.62-.82,1.05-1.39,1.3-1.71.16-.39.28-.64.36-.75s.17-.16.26-.16c.25,0,.42.25.5.75.08.5.12,1.01.12,1.55,0,.5-.03,1.08-.09,1.73-.06.66-.17,1.32-.33,1.97-.16.66-.37,1.3-.64,1.92-.27.62-.61,1.16-1.02,1.63-.54.6-1.24,1.17-2.11,1.71s-1.83,1-2.89,1.39c-1.06.39-2.19.7-3.39.93-1.2.23-2.42.35-3.65.35-1.14,0-2.37-.13-3.7-.4s-2.65-.69-3.96-1.28c-1.31-.59-2.58-1.37-3.8-2.35-1.22-.98-2.29-2.18-3.23-3.6-.93-1.42-1.69-3.1-2.25-5.04-.57-1.94-.85-4.15-.85-6.64,0-3.41.51-6.37,1.54-8.88s2.39-4.59,4.08-6.24c1.69-1.65,3.63-2.88,5.81-3.68,2.18-.8,4.45-1.2,6.79-1.2,1.33,0,2.58.15,3.75.45,1.17.3,2.25.68,3.23,1.15.98.46,1.86.97,2.63,1.52.78.55,1.43,1.08,1.97,1.57.16.21.4.32.71.32Z" style="fill: #000; stroke-width: 0px;"/>
      <path d="M2130.91,1100.91c.06-.21.34-.41.83-.59.49-.18,1.01-.28,1.54-.32.57,0,1.09.12,1.57.35.47.23.89.5,1.26.8.36.3.64.6.83.91.19.3.28.54.28.72.03.28-.02.67-.14,1.15s-.21.9-.24,1.25c-.06.82-.11,1.63-.14,2.43s-.05,1.65-.05,2.56v6.64c2.12,0,4.15-.02,6.1-.05,1.95-.04,4.04-.11,6.29-.21.25,0,.56-.02.92-.05.36-.04.74-.07,1.14-.11.4-.04.77-.07,1.12-.11.35-.04.63-.05.85-.05.28,0,.72.07,1.31.21.58.14,1.04.46,1.35.96,0-2.81,0-5.28-.02-7.41-.02-2.13-.06-3.89-.12-5.28-.06-.96-.17-1.73-.33-2.32s-.25-1.08-.28-1.47c.03-.21.3-.41.81-.59.51-.18,1.03-.28,1.57-.32.6,0,1.15.12,1.64.35.49.23.9.5,1.23.8.33.3.59.61.78.93s.28.57.28.75c-.06.71-.17,1.53-.33,2.45-.16.92-.24,1.99-.24,3.2v2.77c0,.78,0,1.48-.02,2.08-.02.6-.02,1.14-.02,1.6v1.33c0,.96.02,2.21.07,3.76.05,1.55.09,3.19.14,4.93.05,1.74.09,3.49.14,5.25.05,1.76.07,3.35.07,4.77,0,.92-.04,1.67-.12,2.24-.08.57-.19,1.01-.33,1.33-.14.32-.32.53-.52.64s-.43.16-.69.16c-1.65,0-2.76-.35-3.35-1.04-.59-.69-.88-1.77-.88-3.23.06-.82.12-1.8.17-2.93.05-1.14.09-2.34.12-3.6.03-1.26.05-2.53.07-3.81.02-1.28.04-2.47.07-3.57-.38.04-.9.07-1.57.11-.66.04-1.4.06-2.21.08-.81.02-1.64.04-2.49.05-.85.02-1.66.03-2.42.03h-1.45c-.68,0-1.45,0-2.3-.03-.85-.02-1.73-.03-2.63-.03h-2.44c-.57,0-1.06-.34-1.47-1.01,0,.6.02,1.5.05,2.69.03,1.19.07,2.49.12,3.89.05,1.4.09,2.83.12,4.27.03,1.44.05,2.71.05,3.81,0,1.67-.13,2.84-.38,3.52-.25.68-.84,1.01-1.76,1.01-.85,0-1.54-.13-2.06-.4-.52-.27-.92-.58-1.21-.93-.28-.36-.46-.71-.52-1.07-.06-.36-.08-.62-.05-.8.13-1.17.27-3.79.43-7.84.16-4.05.24-9.72.24-17.01v-3.12c0-1.01-.03-1.95-.09-2.8-.06-.82-.13-1.48-.19-2-.06-.52-.13-.93-.19-1.25s-.12-.59-.17-.8c-.05-.21-.09-.43-.12-.64Z" style="fill: #000; stroke-width: 0px;"/>
      <path d="M2170.07,1101.49c0-.32.32-.54.97-.67.65-.12,1.32-.24,2.02-.35.73.14,1.38.29,1.97.45.58.16,1.14.39,1.66.69.52.3,1.03.71,1.52,1.23.49.52,1.01,1.22,1.54,2.11.63,1.07,1.48,2.46,2.54,4.19,1.06,1.72,2.21,3.56,3.44,5.52,1.23,1.96,2.48,3.92,3.75,5.89,1.27,1.97,2.4,3.72,3.39,5.25,1,1.53,1.79,2.76,2.37,3.68.58.92.83,1.3.74,1.12v-11.52c-.03-1.53-.06-3.11-.09-4.75-.03-1.64-.07-3.2-.12-4.69-.05-1.49-.11-2.84-.19-4.05-.08-1.21-.17-2.12-.26-2.72l-.14-.72c-.03-.16-.09-.38-.19-.67.06-.78.71-1.19,1.95-1.23.66.11,1.29.27,1.87.48s1.08.47,1.47.77c.39.3.69.63.88.99.19.36.24.75.14,1.17l-.14,1.87c-.09,1.32-.18,3-.26,5.07-.08,2.06-.14,4.26-.19,6.59-.05,2.33-.08,4.67-.09,7.01-.02,2.35-.02,4.48-.02,6.4,0,.6.02,1.24.05,1.92.03.68.07,1.3.12,1.87.05.57.09,1.07.12,1.49s.05.71.05.85c0,1.64-.6,2.45-1.8,2.45-.38,0-.82-.05-1.33-.16s-1.04-.3-1.61-.59c-.76-.46-1.31-.83-1.66-1.09s-.59-.51-.74-.72c-.14-.21-.24-.43-.31-.64s-.19-.48-.38-.8c.09.14-.14-.24-.71-1.15-.57-.91-1.34-2.16-2.3-3.76s-2.06-3.41-3.3-5.44c-1.23-2.03-2.49-4.08-3.77-6.16-1.28-2.08-2.52-4.06-3.73-5.95-1.2-1.88-2.25-3.48-3.13-4.8v4.05c.06,5.05.16,9.53.28,13.44.13,3.91.19,7.25.19,10.03,0,.78-.06,1.42-.17,1.92-.11.5-.25.88-.43,1.15s-.37.44-.59.53c-.22.09-.44.13-.66.13-1.39,0-2.35-.27-2.87-.8-.52-.53-.88-1.16-1.07-1.87l.14-1.71c.09-1.21.17-2.55.24-4.03.06-1.48.11-3.11.14-4.91.03-1.8.05-3.79.07-5.97.01-2.19.02-4.61.02-7.28v-2.83c0-.78-.02-1.48-.05-2.08-.03-.6-.06-1.16-.09-1.68-.03-.52-.08-1.04-.14-1.57-.47-.5-.77-1.02-.88-1.57-.11-.55-.18-1.02-.21-1.41Z" style="fill: #000; stroke-width: 0px;"/>
      <path d="M2236.85,1103.89c.19.43.24.78.17,1.07-.08.28-.15.68-.21,1.17.41,0,1.03.52,1.85,1.55.66.85,1.25,1.8,1.76,2.85.51,1.05.94,2.14,1.31,3.28.36,1.14.63,2.28.81,3.44.17,1.16.26,2.27.26,3.33,0,2.45-.32,4.81-.95,7.07-.63,2.26-1.61,4.26-2.94,6-1.33,1.74-3.02,3.13-5.08,4.16-2.06,1.03-4.51,1.55-7.36,1.55-2.21,0-4.33-.36-6.34-1.07-2.01-.71-3.77-1.83-5.29-3.36-1.52-1.53-2.73-3.48-3.63-5.84-.9-2.36-1.35-5.18-1.35-8.45,0-2.88.4-5.56,1.21-8.03.81-2.47,1.94-4.61,3.39-6.43,1.46-1.81,3.18-3.24,5.17-4.27,1.99-1.03,4.18-1.55,6.55-1.55,1.2,0,2.4.12,3.58.37,1.19.25,2.28.55,3.27.91,1,.36,1.83.74,2.52,1.15.68.41,1.11.77,1.3,1.09ZM2234.95,1110.67c-.28-.46-.46-.86-.52-1.2-.06-.34-.03-.72.09-1.15-.06.04-.12.07-.17.11-.05.04-.12.05-.21.05-.25,0-.51-.02-.76-.05-.25-.04-.51-.2-.76-.48-.63-.5-1.5-1-2.59-1.49-1.09-.5-2.33-.75-3.73-.75-1.49,0-2.93.32-4.32.96s-2.63,1.59-3.7,2.85c-1.08,1.26-1.93,2.83-2.56,4.69s-.95,4.01-.95,6.43.3,4.42.9,6.11c.6,1.69,1.42,3.08,2.47,4.16,1.04,1.08,2.25,1.88,3.63,2.37,1.38.5,2.84.75,4.39.75,2.21,0,4.07-.44,5.58-1.33,1.5-.89,2.7-2.03,3.61-3.41.9-1.39,1.54-2.92,1.92-4.61.38-1.69.57-3.35.57-4.99,0-.82-.1-1.67-.31-2.56-.21-.89-.46-1.74-.76-2.56-.3-.82-.62-1.57-.95-2.27-.33-.69-.63-1.24-.88-1.63Z" style="fill: #000; stroke-width: 0px;"/>
      <path d="M2251.67,1101.07c.03-.18.27-.39.71-.64.44-.25,1.01-.39,1.71-.43,1.33.36,2.36.75,3.08,1.17.73.43,1.09.94,1.09,1.55,0,.11-.02.32-.07.64-.05.32-.09.67-.14,1.04-.05.37-.09.74-.14,1.09-.05.36-.07.62-.07.8s0,.86-.02,2.05c-.02,1.19-.04,2.65-.07,4.37-.03,1.72-.06,3.61-.09,5.65-.03,2.04-.06,4.03-.09,5.95-.03,1.92-.06,3.66-.07,5.23-.02,1.56-.02,2.72-.02,3.47.32,0,.94,0,1.87-.03.93-.02,2.03-.04,3.3-.08,1.27-.04,2.61-.07,4.03-.11,1.42-.04,2.78-.07,4.06-.11,1.28-.04,2.4-.06,3.37-.08.96-.02,1.64-.03,2.02-.03.28,0,.62.04,1,.13.38.09.77.23,1.16.43.39.2.76.45,1.09.77.33.32.58.73.74,1.23.32.6.42,1.15.31,1.63s-.34.88-.69,1.2c-.35.32-.77.57-1.26.75-.49.18-.96.27-1.4.27l-1.09-.16c-1.33-.18-2.95-.31-4.86-.4-1.91-.09-3.77-.13-5.58-.13-.85,0-1.76,0-2.73.03-.97.02-1.89.04-2.78.08-.89.04-1.66.06-2.33.08-.66.02-1.12.04-1.38.08-.35.07-.66.19-.92.35-.27.16-.58.24-.93.24-.25,0-.55-.21-.9-.64s-.69-.95-1.02-1.57c-.33-.62-.64-1.25-.93-1.89s-.49-1.17-.62-1.6c.09-.36.21-.65.36-.88.14-.23.28-.47.43-.72.14-.25.26-.54.36-.88.09-.34.16-.79.19-1.36.16-3.66.21-7.34.17-11.04-.05-3.7-.07-7.5-.07-11.41,0-.85-.03-1.56-.09-2.13-.06-.57-.13-1.08-.21-1.52-.08-.44-.17-.85-.26-1.23s-.16-.77-.19-1.2Z" style="fill: #000; stroke-width: 0px;"/>
      <path d="M2313.99,1103.89c.19.43.24.78.17,1.07-.08.28-.15.68-.21,1.17.41,0,1.03.52,1.85,1.55.66.85,1.25,1.8,1.76,2.85.51,1.05.94,2.14,1.31,3.28.36,1.14.63,2.28.81,3.44.17,1.16.26,2.27.26,3.33,0,2.45-.32,4.81-.95,7.07-.63,2.26-1.61,4.26-2.94,6-1.33,1.74-3.02,3.13-5.08,4.16-2.06,1.03-4.51,1.55-7.36,1.55-2.21,0-4.33-.36-6.34-1.07-2.01-.71-3.77-1.83-5.29-3.36-1.52-1.53-2.73-3.48-3.63-5.84-.9-2.36-1.35-5.18-1.35-8.45,0-2.88.4-5.56,1.21-8.03.81-2.47,1.94-4.61,3.39-6.43,1.46-1.81,3.18-3.24,5.17-4.27,1.99-1.03,4.18-1.55,6.55-1.55,1.2,0,2.4.12,3.58.37,1.19.25,2.28.55,3.27.91,1,.36,1.83.74,2.52,1.15.68.41,1.11.77,1.3,1.09ZM2312.09,1110.67c-.28-.46-.46-.86-.52-1.2-.06-.34-.03-.72.09-1.15-.06.04-.12.07-.17.11-.05.04-.12.05-.21.05-.25,0-.51-.02-.76-.05-.25-.04-.51-.2-.76-.48-.63-.5-1.5-1-2.59-1.49-1.09-.5-2.33-.75-3.73-.75-1.49,0-2.93.32-4.32.96s-2.63,1.59-3.7,2.85c-1.08,1.26-1.93,2.83-2.56,4.69-.63,1.87-.95,4.01-.95,6.43s.3,4.42.9,6.11c.6,1.69,1.42,3.08,2.47,4.16,1.04,1.08,2.25,1.88,3.63,2.37,1.38.5,2.84.75,4.39.75,2.21,0,4.07-.44,5.58-1.33,1.5-.89,2.7-2.03,3.61-3.41.9-1.39,1.54-2.92,1.92-4.61.38-1.69.57-3.35.57-4.99,0-.82-.1-1.67-.31-2.56-.21-.89-.46-1.74-.76-2.56-.3-.82-.62-1.57-.95-2.27-.33-.69-.63-1.24-.88-1.63Z" style="fill: #000; stroke-width: 0px;"/>
      <path d="M2344.08,1119.84c-.09-.75-.02-1.23.21-1.44.24-.21.51-.34.83-.37.38.14.81.24,1.28.29s.95.08,1.42.08h3.89c.95,0,1.82-.04,2.61-.11.32-.04.62-.12.92-.24.3-.12.56-.19.78-.19.19,0,.49.12.9.37.41.25.82.55,1.23.91.41.36.77.74,1.07,1.15.3.41.45.77.45,1.09,0,.75-.09,1.48-.28,2.21-.19.73-.28,1.31-.28,1.73,0,.53.02,1.32.05,2.35.03,1.03.05,2.09.07,3.17.02,1.08.04,2.1.07,3.04.03.94.05,1.59.05,1.95,0,.18-.03.41-.09.69s-.14.57-.24.85c-.09.28-.19.53-.28.75s-.19.34-.28.37c-.44.46-.84.71-1.19.75-.35.04-.78-.12-1.28-.48-.22-.21-.43-.43-.62-.64s-.36-.64-.52-1.28c-.44.21-.93.47-1.47.77-.54.3-1.19.6-1.97.88-.78.28-1.73.53-2.87.75-1.14.21-2.55.32-4.22.32-2.72,0-5.12-.56-7.19-1.68-2.07-1.12-3.81-2.59-5.22-4.4-1.41-1.81-2.48-3.86-3.2-6.13-.73-2.28-1.09-4.55-1.09-6.83,0-3.66.55-6.78,1.64-9.36,1.09-2.58,2.5-4.68,4.22-6.32,1.72-1.64,3.65-2.83,5.77-3.57,2.12-.75,4.21-1.12,6.26-1.12.79,0,1.58.05,2.37.16.79.11,1.61.28,2.47.53.85.25,1.76.59,2.73,1.01s2.05.94,3.25,1.55c.09.04.25.05.47.05.16,0,.3,0,.43-.03.13-.02.24-.03.33-.03.44.39.66.8.66,1.23,0,.14-.04.35-.12.61s-.17.55-.28.85c-.11.3-.21.6-.31.88-.09.28-.17.52-.24.69-.44,1.14-.8,1.93-1.07,2.37-.27.44-.56.67-.88.67-.41,0-.84-.36-1.28-1.07-.38-.57-.89-1.09-1.54-1.57-.65-.48-1.38-.9-2.18-1.25-.81-.36-1.66-.63-2.56-.83-.9-.2-1.79-.29-2.68-.29-2.09,0-3.91.46-5.46,1.39-1.55.92-2.82,2.11-3.82,3.55-1,1.44-1.74,3.01-2.23,4.72-.49,1.71-.74,3.36-.74,4.96,0,1.17.16,2.55.47,4.13.32,1.58.93,3.1,1.83,4.56.9,1.46,2.16,2.69,3.77,3.71,1.61,1.01,3.72,1.52,6.31,1.52.57,0,1.39-.05,2.47-.16,1.08-.11,2.14-.36,3.2-.77,1.06-.41,1.99-1,2.78-1.76.79-.76,1.19-1.8,1.19-3.12,0-.96.02-1.94.05-2.93.03-1,.05-1.88.05-2.67-.28,0-.78.02-1.5.05-.71.04-1.49.07-2.32.11-.84.04-1.64.07-2.4.11-.76.04-1.31.07-1.66.11l-1,.16c-.16.04-.35.05-.57.05s-.46-.22-.71-.67c-.25-.44-.49-1.41-.71-2.91Z" style="fill: #000; stroke-width: 0px;"/>
      <path d="M2395.35,1100.48c.41,0,.86.1,1.35.29.49.2.96.45,1.42.77s.86.69,1.21,1.12.57.87.66,1.33c.03.25-.34.94-1.12,2.08-.78,1.14-1.82,2.58-3.13,4.32-1.31,1.74-2.83,3.71-4.56,5.89s-3.5,4.45-5.34,6.8c0,1.24.02,2.38.05,3.41.03,1.03.07,2.05.12,3.07.05,1.01.09,2.06.12,3.15.03,1.08.05,2.28.05,3.6s-.19,2.14-.57,2.59c-.38.44-.81.67-1.28.67-1.52,0-2.61-.39-3.27-1.17-.66-.78-1-1.65-1-2.61.09-.64.19-1.34.28-2.11.09-.76.17-1.65.21-2.67.05-1.01.09-2.17.12-3.47.03-1.3.05-2.78.05-4.45-1.58-2.67-3.34-5.51-5.27-8.53-1.93-3.02-3.97-5.94-6.12-8.75-1.01-1.28-1.8-2.45-2.37-3.52,0-.5.46-1,1.38-1.49.32-.14.72-.23,1.21-.27.49-.04,1,.04,1.52.21.52.18,1.04.47,1.57.88.52.41.96.99,1.3,1.73.28.6.85,1.55,1.68,2.83s1.76,2.67,2.75,4.16c1,1.49,1.98,2.95,2.94,4.37.96,1.42,1.72,2.58,2.25,3.47.6-.75,1.24-1.56,1.92-2.45.68-.89,1.33-1.77,1.95-2.64.62-.87,1.18-1.68,1.68-2.43.51-.75.89-1.35,1.14-1.81.89-1.35,1.58-2.52,2.09-3.49.51-.98.92-1.8,1.26-2.45.33-.66.62-1.18.85-1.57.24-.39.53-.68.88-.85Z" style="fill: #000; stroke-width: 0px;"/>
    </g>
  </g>
</svg>